<?xml version="1.0" standalone="no"?>
<!DOCTYPE svg PUBLIC "-//W3C//DTD SVG 1.1//EN" "http://www.w3.org/Graphics/SVG/1.1/DTD/svg11.dtd">
<svg xmlns="http://www.w3.org/2000/svg" width="402" height="293" viewBox="0 0 402 293"><path fill-rule="evenodd" fill="white" d="M93.457 29.863C88.948 32.613 87 36.223 87 41.83c0 5.49 2.239 9.208 7.039 11.69 8.703 4.501 18.954-2 18.954-12.02 0-10.219-11.059-16.807-19.536-11.637m-8.86 29.276C75.918 60.252 67.349 62.403 59 65.564c-9.055 3.427-10.362 4.396-6 4.445 10.286.117 19.61 4.442 28 12.988 10.387 10.58 18.307 26.089 23.86 46.72 3.276 12.174 2.845 12.745 5.65-7.479 4.115-29.657 14.475-46.032 30.308-47.901 14.098-1.664 24.512 8.681 30.041 29.844 1.103 4.225 2.276 10.975 2.606 15s.855 10.217 1.167 13.759l.568 6.439 6.309-13.015c7.186-14.824 12.773-21.063 20.898-23.338 13.51-3.783 22.177 5.344 23.472 24.716l.651 9.758 1.893-3.842c3.327-6.754 10.951-14.092 18.596-17.895l7.079-3.522-3.799-.669c-2.09-.367-6.152-1.331-9.027-2.142-5.21-1.468-5.221-1.481-3.25-3.452 4.051-4.051 1.289-9.978-4.651-9.978-3.866 0-5.371 1.616-5.371 5.767 0 4.129.602 4.269-18.5-4.306-25.425-11.413-29.284-13.385-26.266-13.425 1.553-.02 4.11-1.265 5.917-2.88 2.715-2.426 3.182-3.528 3.182-7.508 0-5.647-2.887-9.286-8.153-10.274-8.774-1.646-14.546 6.913-10.712 15.883.806 1.885-.341 1.435-20.968-8.232-24.055-11.272-44.627-14.873-67.903-11.886m36.834 89.618c-8.22 2.94-12.699 7.217-16.701 15.946-1.93 4.209-2.202 6.513-2.215 18.797-.021 20.016 3.196 27.719 14.309 34.251 4.299 2.527 5.523 2.749 15.176 2.749 11.761 0 15.682-1.385 21.699-7.662 6.023-6.285 7.703-11.768 8.12-26.502.435-15.337-.933-21.708-6.121-28.509-6.973-9.143-22.542-13.264-34.267-9.07m79.069-.89c-5.996 1.577-10.793 4.555-13.616 8.452-2.479 3.421-2.884 4.9-2.884 10.519 0 11.266 5.172 16.072 22.273 20.699 16.559 4.48 19.727 6.69 19.727 13.761 0 6.883-9.388 11.638-19.947 10.104-8.356-1.214-12.682-4.617-13.225-10.402-.325-3.469-.374-3.503-5.578-3.802l-5.25-.303v3.585c0 7.327 4.285 13.984 11.5 17.867 3.459 1.862 5.622 2.153 16 2.153 10.461 0 12.529-.283 16.124-2.206 7.461-3.991 11.357-10.666 11.37-19.479.016-10.553-6.473-16.163-23.994-20.746-11.847-3.099-16.516-5.487-18.073-9.244-2.656-6.412 3.914-11.821 14.363-11.823 7.399-.002 13.421 2.849 14.278 6.76 1.13 5.163 1.221 5.238 6.401 5.238 5.021 0 5.031-.006 5.031-3.288 0-1.809-1.012-5.296-2.25-7.75-3.332-6.609-10.288-10.083-21.1-10.54-4.482-.19-9.5.011-11.15.445m-173.833.8c-.367.366-.667 16.595-.667 36.063v35.396l17.75-.313c14.766-.26 18.369-.621 21.429-2.143 4.855-2.415 10.364-7.854 12.807-12.643 4.361-8.547 5.021-27.78 1.326-38.624-2.388-7.008-10.37-14.749-17.346-16.82-5.442-1.617-33.862-2.354-35.299-.916M260 183.982V220h48l-.014-2.25c-.007-1.238-.285-3.262-.616-4.5-.597-2.227-.786-2.25-18.487-2.25H271v-23h32v-9h-32v-21h17.481c19.452 0 17.885.585 18.738-7l.281-2.5-23.75-.268-23.75-.268zm70.667-35.315c-.367.366-.667 16.566-.667 36V220h11v-30l13.75-.016c15.619-.019 18.836-1.102 24.625-8.29 2.607-3.237 3.124-4.827 3.451-10.618.649-11.484-4.427-19.268-14.326-21.972-4.291-1.172-36.724-1.547-37.833-.437m-205.497 9.049c-3.852.734-9.717 7.428-11.011 12.568-1.372 5.449-1.492 21.575-.202 27.139 2.379 10.254 11.658 15.732 22.84 13.481 6.372-1.282 11.19-5.581 12.991-11.592.667-2.224 1.212-9.416 1.212-15.982 0-10.802-.243-12.426-2.559-17.073-3.897-7.819-11.811-10.724-23.271-8.541M37 184.644v26.643l10.324-.527c11.563-.59 15.175-1.926 19.093-7.062 3.467-4.545 4.926-12.344 4.355-23.269C69.869 163.158 64.353 158 46.788 158H37zm304-15.039v11.606l11.927-.356c13.73-.409 16.561-1.675 18.97-8.485 1.235-3.493 1.204-4.355-.266-7.454-2.762-5.819-5.781-6.916-19.035-6.916H341zM49.394 245c.095 4.944.339 5.533 2.411 5.827 1.268.179 2.955-.213 3.75-.873C57.196 248.592 57.58 240 56 240c-.55 0-1 1.998-1 4.441 0 7.627-4.543 6.968-5.302-.769-.3-3.056-.381-2.701-.304 1.328m12.527-5c-.755 2.637-.684 11 .092 11 .543 0 .987-1.679.987-3.732v-3.732l2.536 3.732c1.395 2.053 2.875 3.732 3.289 3.732 1.121 0 1.244-9.839.131-10.527-.541-.335-.979 1.061-1.008 3.218-.049 3.558-.145 3.677-1.457 1.809-2.935-4.181-4.432-5.983-4.57-5.5M80 245.5c0 3.025.45 5.5 1 5.5s1-.851 1-1.892c0-1.192.94-2.127 2.543-2.529 5.151-1.293 3.814-6.579-1.665-6.579-2.822 0-2.878.108-2.878 5.5m11.75-4.928c-1.091 1.107-.918 6.245.285 8.494 1.344 2.512 5.582 2.517 6.925.009 1.06-1.982 1.123-6.805.112-8.575-.315-.55-.797 1.25-1.072 4-.417 4.167-.833 5-2.5 5-1.656 0-2.086-.833-2.5-4.845-.275-2.664-.838-4.502-1.25-4.083M104 245.5v5.5h4.059c2.451 0 3.814-.396 3.441-1-.34-.55-1.716-1-3.059-1-3.396 0-3.136-2.762.309-3.284l2.75-.416-2.75-.15c-3.566-.194-3.801-3.15-.25-3.15 1.375 0 2.5-.45 2.5-1s-1.575-1-3.5-1H104zm11.926-5.5c-.768 2.788-.712 11 .075 11 .549 0 .999-1.679.999-3.732v-3.732l2.536 3.732c1.395 2.053 2.889 3.732 3.321 3.732 1.203 0 1.378-9.737.188-10.472-.654-.404-1.065.778-1.097 3.163-.049 3.558-.145 3.677-1.457 1.809-2.928-4.171-4.432-5.983-4.565-5.5m11.074.927c0 .509.778 1.076 1.73 1.259 1.376.266 1.667 1.2 1.423 4.574-.184 2.55.123 4.24.771 4.24.609 0 1.076-1.954 1.076-4.5 0-3.333.389-4.5 1.5-4.5.825 0 1.5-.45 1.5-1s-1.8-1-4-1-4 .417-4 .927m12 4.573v5.5l4.25-.015c3.112-.012 3.849-.275 2.75-.985-.825-.533-2.287-.976-3.25-.985-2.853-.025-1.998-2.845 1-3.299l2.75-.416-2.75-.15c-3.566-.194-3.801-3.15-.25-3.15 1.375 0 2.5-.45 2.5-1s-1.575-1-3.5-1H139zm17 0v5.5h3.5c1.925 0 3.5-.45 3.5-1s-1.125-1-2.5-1c-3.445 0-3.235-2.756.25-3.284l2.75-.416-2.75-.15c-3.566-.194-3.801-3.15-.25-3.15 1.375 0 2.5-.45 2.5-1s-1.575-1-3.5-1H156zm11.647-4.738c-.883 1.428-.364 10.237.603 10.237.412.001.75-1.678.75-3.731v-3.732l2.536 3.732c1.395 2.053 2.889 3.732 3.321 3.732 1.203 0 1.378-9.737.188-10.472-.654-.404-1.067.78-1.104 3.163-.051 3.335-.207 3.577-1.25 1.94-2.809-4.406-4.388-5.931-5.044-4.869M179 241c0 .55.627 1 1.393 1 1.774 0 2.365 1.656 2.054 5.75-.136 1.787.157 3.25.653 3.25.495 0 .9-2.025.9-4.5 0-3.333.389-4.5 1.5-4.5.825 0 1.5-.45 1.5-1s-1.8-1-4-1-4 .45-4 1m12 4.5c0 3.025.45 5.5 1 5.5s1-1.125 1-2.5c0-1.574.565-2.5 1.525-2.5.838 0 1.952 1.125 2.475 2.5 1.401 3.686 1.865 3.072 1.699-2.25-.164-5.267-.914-6.212-4.949-6.235-2.669-.015-2.75.148-2.75 5.485m13 0v5.5h3.667c2.016 0 3.329-.338 2.916-.75-.749-.749-1.259-.89-4.083-1.125-2.77-.231-1.65-3.12 1.25-3.225 2.708-.098 2.713-.11.324-.777-3.695-1.033-3.8-3.123-.157-3.123 1.696 0 3.083-.45 3.083-1s-1.575-1-3.5-1H204zm16.75-4.926c-.412.418-.75 2.934-.75 5.593V251h3.5c1.925 0 3.5-.45 3.5-1s-1.1-1-2.445-1c-2.195 0-2.477-.471-2.75-4.593-.168-2.526-.643-4.251-1.055-3.833m10.592 4.928c-1.187 3.024-1.75 5.498-1.25 5.498.499 0 .908-.45.908-1 0-1.407 5.351-1.249 6.8.2 1.802 1.802 1.517-.295-.764-5.617-1.081-2.521-2.318-4.582-2.75-4.581-.433.001-1.757 2.476-2.944 5.5M249 241.5c-1.565 1.886-.025 4.026 3.541 4.921 2.769.695 3.239 2.343.922 3.232-.846.324-2.473-.253-3.616-1.282-2.038-1.833-2.072-1.831-1.7.129.294 1.545 1.174 2 3.867 2 2.866 0 3.543-.405 3.809-2.277.252-1.774-.354-2.512-2.75-3.347-1.69-.59-3.073-1.403-3.073-1.807 0-1.558 1.343-1.956 3.217-.953 2.312 1.238 3.892.197 1.754-1.155-2.173-1.375-4.562-1.159-5.971.539m12.266 3.716c-1.116 2.906-1.795 5.509-1.51 5.784s.719-.062.964-.75c.246-.687 1.722-1.25 3.28-1.25s3.034.563 3.28 1.25c.245.688.722.998 1.059.691.808-.737-2.83-10.271-4.077-10.687-.533-.178-1.881 2.055-2.996 4.962m11.484-4.642c-.413.418-.75 2.934-.75 5.593V251h3.5c1.925 0 3.5-.45 3.5-1s-.337-.947-.75-.882c-3.371.533-4.152-.295-4.445-4.711-.168-2.526-.642-4.251-1.055-3.833m10-.002c-1.195 1.213-.868 7.91.45 9.228 1.523 1.523 5.461 1.558 6.389.056 1.077-1.743 1.52-7.168.723-8.856-.43-.911-.925.465-1.26 3.5-.458 4.149-.892 5-2.552 5-1.656 0-2.086-.833-2.5-4.845-.275-2.664-.837-4.502-1.25-4.083m12.25 4.991v5.564l3.243-.314c7.135-.689 6.885-10.813-.266-10.813-2.946 0-2.977.058-2.977 5.563m18.98-1.603c1.111 2.178 2.059 4.766 2.106 5.75.058 1.205.335.97.848-.716.42-1.379 1.518-3.967 2.44-5.75.923-1.784 1.288-3.244.812-3.244s-1.423 1.225-2.105 2.722l-1.241 2.723-1.651-2.723c-2.543-4.189-3.486-3.224-1.209 1.238m15.342-2.564c.294.768 1.089 3.243 1.765 5.5 1.484 4.952 2.58 5.167 4.344.854 2.206-5.395 2.752-7.75 1.795-7.75-.5 0-1.496 1.912-2.212 4.25l-1.303 4.25-1.31-3c-.721-1.65-1.331-3.562-1.356-4.25-.025-.687-.543-1.25-1.152-1.25s-.866.628-.571 1.396m12.878-.196c-.66.66-1.2 2.595-1.2 4.3 0 3.612 1.545 5.5 4.5 5.5s4.5-1.888 4.5-5.5-1.545-5.5-4.5-5.5c-1.155 0-2.64.54-3.3 1.2m12.162.3c-.889 2.315.286 4.311 2.749 4.672 2.795.411 3.631 2.606 1.328 3.49-1.109.425-2.246-.022-3.173-1.25-1.414-1.871-1.438-1.869-1.097.088.452 2.598 4.993 3.215 6.884.936 1.204-1.45 1.081-1.909-.946-3.551-1.281-1.037-2.954-1.885-3.718-1.885s-1.389-.509-1.389-1.131c0-.739 1.242-.929 3.581-.55 3.05.495 3.403.367 2.378-.869-1.575-1.897-5.863-1.865-6.597.05M82 243.5c0 .833.889 1.5 2 1.5s2-.667 2-1.5-.889-1.5-2-1.5-2 .667-2 1.5m111 0c0 .833.889 1.5 2 1.5s2-.667 2-1.5-.889-1.5-2-1.5-2 .667-2 1.5m104 1.823c0 3.786 2.108 5.456 4.004 3.173 1.846-2.225.811-5.951-1.754-6.316-1.962-.278-2.25.125-2.25 3.143m46 .208c0 4.072 2.531 5.83 4.506 3.13 1.958-2.678.689-6.661-2.123-6.661-2.061 0-2.383.477-2.383 3.531m-109.318-1.879c-1.231 1.23-.713 3.348.818 3.348 1.666 0 1.874-.862.666-2.765-.441-.696-1.109-.958-1.484-.583M262.71 245c-.381 1.457-.03 2 1.29 2s1.671-.543 1.29-2c-.288-1.1-.868-2-1.29-2s-1.002.9-1.29 2"/></svg>