<?xml version="1.0" standalone="no"?>
<!DOCTYPE svg PUBLIC "-//W3C//DTD SVG 1.1//EN" "http://www.w3.org/Graphics/SVG/1.1/DTD/svg11.dtd">
<svg xmlns="http://www.w3.org/2000/svg" width="790" fill="white" height="154" viewBox="0 0 790 154"><path fill-rule="evenodd" d="M94.609 10.194c-2.605 3.975-4.579 14.887-4.594 25.396-.018 12.024 2.24 21.92 7.434 32.579 1.965 4.032 3.306 6.431 2.98 5.331-4.832-16.337-4.324-37.04 1.209-49.186 2.937-6.448 2.948-8.149.077-12.409-2.821-4.186-5.122-4.74-7.106-1.711m-21.699 4.27-2.368 4.464 1.841 4.786c3.287 8.543 4.786 17.4 4.38 25.878-.319 6.656-.892 8.952-3.227 12.937-4.313 7.359-10.149 13.135-16.329 16.158-5.015 2.454-6.678 2.732-16.541 2.771L29.7 81.5l-1.957 3.768c-1.648 3.171-1.748 4.021-.631 5.367 1.068 1.287 2.757 1.508 8.639 1.131 15.68-1.007 35.676-15.399 43.149-31.057 5.886-12.333 7.554-27.184 4.611-41.072C81.862 11.853 80.709 10 77.517 10c-1.631 0-2.883 1.213-4.607 4.464M105.5 30c-7.548 11.958-7.22 33.99.76 51 5.956 12.696 21.424 25.243 37.592 30.491 8.955 2.907 12.448-.206 8.147-7.261-2.246-3.684-3.96-4.523-12.469-6.106-7.625-1.419-19.15-6.883-24.267-11.505-7.217-6.521-12.081-21.032-10.263-30.618 1.065-5.618 2.774-9.266 7.675-16.392 3.512-5.106 3.593-6.728.566-11.359-2.212-3.383-4.882-2.779-7.741 1.75m598.191-2.499c-17.584 4.834-31.603 18.985-37.079 37.431-2.383 8.027-2.151 23.099.489 31.713 13.863 45.243 75.005 50.249 95.958 7.855 8.056-16.3 8.144-33.736.254-50.358-6.439-13.567-20.243-24.474-34.362-27.151-7.097-1.346-19.413-1.098-25.26.51m-472.329 1.423c-18.898 5.106-32.828 16.959-38.619 32.86-2.609 7.164-3.533 24.061-1.758 32.141 4.297 19.56 20.92 34.504 43.069 38.718 10.364 1.972 31.192 1.321 43.746-1.366l8.301-1.777-.012-25-.012-25-11.038-.283c-9.999-.256-13.674.558-9.591 2.125 3.572 1.37 4.867 6.774 5.346 22.303.552 17.879 1.259 16.849-12.788 18.622-15.219 1.921-27.35-1.75-37.498-11.348-17.02-16.096-18.062-45.418-2.179-61.301 5.21-5.209 10.329-8.033 18.351-10.123 11.602-3.022 25.977-1.12 34.07 4.508l4.25 2.956v-8.863c0-8.311-.14-8.907-2.25-9.582-1.238-.396-9.45-.899-18.25-1.119-13.529-.338-17.102-.102-23.138 1.529m-170.294 1.98c-2.791 3.92-2.607 6.143.872 10.521 3.463 4.357 5.784 10.84 6.841 19.111l.762 5.964 1.752-4.329c3.905-9.65 2.908-22.16-2.465-30.921-2.467-4.023-5.061-4.138-7.762-.346m448.068-2.154-27.364.283 2.489 1.957c4.311 3.391 4.742 8.006 4.695 50.203-.046 40.874-.502 45.854-4.4 48.035-4.239 2.373-.073 2.772 28.909 2.772 34.934 0 30.792 1.328 35.056-11.236 3.275-9.65 3.18-10.401-.916-7.276-1.868 1.424-6.03 3.526-9.25 4.67-5.179 1.84-7.24 2.007-17.855 1.446-18.457-.975-16.592 1.314-16.272-19.964.315-20.981-.871-19.263 12.533-18.147 6.298.525 8.917 1.185 10.337 2.605 1.869 1.869 1.902 1.76 1.903-6.348l.002-8.25-12.502.332-12.501.331V41.262l3.75-.62c10.52-1.739 23.672-.043 26.843 3.461.945 1.043 2.097 1.897 2.562 1.897s.845-4.05.845-9-.337-8.895-.75-8.767-13.064.361-28.114.517m-177.325 2.289c1.204 1.121 2.189 3.105 2.189 4.407s-7.446 21.872-16.546 45.711c-15.56 40.763-16.788 43.566-20.628 47.093l-4.083 3.75 13.878-.005 13.879-.005-2.909-2.328c-2.711-2.169-2.866-2.663-2.269-7.245.352-2.704 2.588-10.317 4.97-16.917l4.331-12h37.793l5.253 13.932c6.968 18.484 7.038 18.867 3.885 21.347-1.405 1.105-2.554 2.282-2.554 2.615s6.75.606 15 .606 15-.239 15-.531c0-.291-1.606-1.94-3.568-3.663-4.921-4.321-6.78-8.444-25.497-56.545L353.5 29.021l-11.939-.01L329.623 29zm77.52.006c1.43 1.126 3.063 3.713 3.629 5.75 1.399 5.037 1.382 82.435-.02 87.48-.576 2.077-1.924 4.322-2.994 4.991S408 130.829 408 131.255s13.794.655 30.653.509l30.653-.264 3.751-10c2.063-5.5 3.598-10.158 3.413-10.351s-1.917.853-3.845 2.324c-7.961 6.072-17.41 7.619-35.875 5.875l-6.75-.637V77.806c0-43.31.174-45.061 4.75-47.726 1.246-.726-2.533-1.028-13.135-1.05L406.73 29zm151.155.123c5.387 4.237 5.514 5.36 5.514 48.735 0 25.749-.378 40.968-1.061 42.782-.584 1.548-2.472 4.278-4.197 6.065l-3.134 3.25h13.029c7.166 0 13.27-.24 13.563-.533s-.941-2.008-2.744-3.811c-2.332-2.332-3.46-4.557-3.911-7.716-.349-2.442-.502-18.791-.34-36.331l.295-31.89 28.16 36.958c15.489 20.327 29.789 38.388 31.778 40.135 3.49 3.064 10.571 7.188 12.342 7.188.473 0 .898-21.988.943-48.862.09-52.814.087-52.791 5.494-56.577C658.283 29.113 657.469 29 645 29s-13.283.113-11.217 1.561c4.68 3.278 4.903 4.941 5.607 41.939.657 34.476.638 34.97-1.244 33-2.885-3.02-54.263-70.59-56.072-73.744-1.571-2.738-1.597-2.743-12.959-2.75L557.73 29zm147.898 7.185c-13.321 3.386-22.054 12.604-25.889 27.327-5.336 20.485 4.53 45.315 21.235 53.443 5.698 2.773 16.111 3.648 23.039 1.936 6.536-1.615 14.467-7.088 18.26-12.601 11.847-17.219 9.73-45.11-4.585-60.414-8.425-9.008-20.449-12.642-32.06-9.691M339.068 54.066c-2.37 6.289-5.6 14.921-7.178 19.184L329.021 81h28.763l-6.885-18.25c-3.787-10.037-7.029-18.67-7.204-19.184s-2.257 4.211-4.627 10.5M69.453 77.094C58.601 88.333 42.68 96.69 28.763 98.453c-2.605.33-5.437.868-6.292 1.197-1.713.657-5.471 7.383-5.471 9.791 0 2.878 4.827 2.909 13.505.086 17.159-5.582 31.286-16.949 41.978-33.777 2.421-3.811 1.592-3.443-3.03 1.344M109 75.075c0 .39 2.046 2.985 4.547 5.766 6.142 6.832 13.479 10.333 22.923 10.939 6.815.437 7.363.322 7.999-1.683.432-1.36-.009-3.337-1.197-5.374l-1.881-3.223-9.445-.219c-8.467-.196-10.146-.566-16.196-3.567-3.713-1.842-6.75-3.029-6.75-2.639M88.88 99.579c17.37 4.671 30.113 12.776 41.255 26.238 2.089 2.524 3.397 3.183 6.316 3.183 4.634 0 7.549-1.524 7.549-3.947 0-2.495-11.164-12.61-19.128-17.329-9.899-5.867-24.672-9.787-36.372-9.651l-5 .059zM61 101.608c-10.994 2.952-20.276 8.218-29.25 16.597-3.73 3.482-4.75 5.114-4.75 7.596 0 2.54.492 3.284 2.507 3.79 5.412 1.358 9.274-.38 13.473-6.063 4.937-6.683 13.826-14.052 20.867-17.298 4.721-2.177 6.36-2.413 14-2.02 14.932.768 22.986 5.995 30.104 19.538l3.549 6.752 4.76.305c8.151.523 7.827-4.356-.914-13.798C102.984 103.655 78.849 96.816 61 101.608m11.024 4.995c-7.405 1.99-13.209 5.556-17.337 10.653-7.819 9.653-7.896 13.744-.26 13.744 4.689 0 5.547-.681 7.567-6 2.045-5.388 6.972-11.422 12.756-15.625 2.888-2.098 5.25-3.941 5.25-4.095 0-.553-2.593-.123-7.976 1.323"/></svg>