<?xml version="1.0" standalone="no"?>
<!DOCTYPE svg PUBLIC "-//W3C//DTD SVG 1.1//EN" "http://www.w3.org/Graphics/SVG/1.1/DTD/svg11.dtd">
<svg xmlns="http://www.w3.org/2000/svg" width="446" fill="white" height="113" viewBox="0 0 446 113"><path fill-rule="evenodd" d="M47.27.994C33.489 3.91 21.517 14.987 17.415 28.617l-1.384 4.596 3.499-2.668c1.925-1.468 6.08-3.879 9.235-5.357C33.848 22.805 35.693 22.5 45 22.5c9.59 0 11.02.255 16.5 2.939 7.602 3.723 15.302 11.392 18.965 18.891 2.191 4.486 2.986 7.83 3.445 14.5l.597 8.67 3.679-5.5c13.741-20.545 6.096-47.497-16.463-58.038C64.783.718 54.48-.532 47.27.994M201.5 21.127c-9.448 1.273-17.87 6.746-23.079 14.999-8.536 13.521-6.508 34.913 4.381 46.21 6.058 6.285 12.328 8.951 22.198 9.437 14.903.734 25.006-4.945 31.208-17.544 3.119-6.336 3.292-7.266 3.292-17.708 0-9.782-.292-11.644-2.601-16.567-1.431-3.05-4.049-7.194-5.819-9.21-6.223-7.088-18.568-11.102-29.58-9.617m78.84-.191c-13.609 3.335-20.391 19.13-13.006 30.291 1.527 2.307 4.967 4.666 11.658 7.993 5.22 2.596 10.057 5.495 10.75 6.441.692.947 1.258 3.456 1.258 5.576 0 7.363-6.917 10.926-14.05 7.237-1.622-.839-2.96-1.851-2.972-2.25-.012-.398-.889-1.849-1.947-3.224l-1.925-2.5-4.053 3.953C263.824 76.627 262 78.763 262 79.2c0 1.831 7.804 9.251 11.5 10.934 5.227 2.381 13.822 2.367 19-.03C300.533 86.385 305 79.022 305 69.5c0-10.353-3.751-15.226-16.019-20.814-4.136-1.884-8.13-4.16-8.875-5.059-2.219-2.673-1.636-6.774 1.325-9.321 3.492-3.004 7.387-2.919 12.077.264 2.989 2.028 3.971 2.292 4.658 1.25 5.35-8.112 5.31-7.995 3.252-9.56-5.54-4.213-15.423-6.71-21.078-5.324m129.156.261c-.265.717-6.11 16.15-12.989 34.297S384 89.074 384 89.79c0 .969 1.721 1.226 6.746 1.006l6.745-.296 2.947-7.25 2.947-7.25h23.188L429 83l2.427 7h7.287c4.007 0 7.281-.112 7.275-.25s-5.752-15.775-12.77-34.75L420.46 20.5l-5.241-.303c-3.62-.209-5.39.101-5.723 1m-274.041 2.061c-.266.691-.364 16.104-.219 34.25L135.5 90.5h13l.263-34.25.263-34.25h-6.544c-4.334 0-6.708.425-7.027 1.258M334 56.476V91h13V61h19V49h-19V34h21.1l-.3-5.75-.3-5.75-16.75-.274-16.75-.274zM33.769 34.149C13.145 36.936-1.79 56.465.482 77.676c1.319 12.322 9.875 24.876 20.738 30.431 5.193 2.656 14.355 4.903 19.74 4.841l4.54-.053-2.5-1.641c-5.229-3.433-12.784-12.105-15.444-17.727-3.68-7.778-4.525-18.655-2.104-27.077 3.925-13.652 14.103-23.791 27.994-27.885L57.5 37.37l-5-1.598c-6.621-2.115-11.78-2.562-18.731-1.623m166.546.953c-3.627 1.05-8.571 5.627-11.074 10.254-2.686 4.964-2.359 16.889.63 22.96 7.631 15.498 30.383 13.135 35.081-3.643 2.09-7.466 1.017-16.824-2.511-21.902-5.051-7.269-13.449-10.18-22.126-7.669M411.46 50.669a1517 1517 0 0 0-3.515 11.581L407.14 65h15.524l-3.862-11.196c-2.124-6.158-4.034-11.37-4.246-11.582-.212-.211-1.605 3.589-3.096 8.447m-309.655 2.937c-.833 14.017-9.369 26.627-22.305 32.949-5.471 2.674-6.925 2.933-16.5 2.939-9.358.005-11.135-.291-16.336-2.728-3.21-1.504-7.62-4.147-9.8-5.874L32.9 77.753l.652 2.873C36.217 92.371 44.931 103.157 56 108.413c5.917 2.81 7.397 3.087 16.5 3.087 9.172 0 10.558-.265 16.741-3.193 8.31-3.937 15.426-10.869 19.328-18.829 2.701-5.509 2.931-6.84 2.931-16.978 0-9.997-.251-11.501-2.748-16.5-1.511-3.025-3.587-6.577-4.613-7.894l-1.865-2.395z"/></svg>