<?xml version="1.0" standalone="no"?>
<!DOCTYPE svg PUBLIC "-//W3C//DTD SVG 1.1//EN" "http://www.w3.org/Graphics/SVG/1.1/DTD/svg11.dtd">
<svg xmlns="http://www.w3.org/2000/svg" fill="white" width="260" height="99" viewBox="0 0 260 99"><path fill-rule="evenodd" d="M128.46 14.421c-1.365 2.083-1.542 5.951-1.273 27.75L127.5 67.5l2.803 5.708c9.953 20.268 39.486 19.54 49.016-1.208 1.452-3.162 2.075-6.592 2.096-11.536.087-20.847-19.779-33.572-37.291-23.885-2.407 1.332-4.544 2.421-4.75 2.421S139 33.465 139 26.7c0-13.57-.436-14.7-5.677-14.7-2.363 0-3.719.675-4.863 2.421m57.287-.437c-4.977 3.915-4.262 11.664 1.344 14.563 4.018 2.078 6.33 1.811 9.832-1.136 8.778-7.386-2.156-20.522-11.176-13.427M33.5 34.61c-6.669 2.537-7.093 2.585-8.442.96-1.89-2.277-7.736-2.041-9.023.364C15.406 37.11 15 47.085 15 61.378c0 23.16.033 23.532 2.223 25.065 2.991 2.095 5.374 1.96 7.777-.443 1.833-1.833 2-3.333 2-17.923 0-15.647.045-15.977 2.573-18.981 5.176-6.152 15.678-6.152 20.854 0C52.945 52.089 53 52.478 53 67.442c0 13.953.181 15.518 2.073 17.923 2.706 3.441 6.177 3.397 8.966-.115 2.084-2.624 2.163-3.459 1.723-18.25-.521-17.502-1.514-21.093-7.543-27.28-5.988-6.145-16.362-8.29-24.719-5.11m53.832.18c-10.57 3.778-16.788 11.713-17.96 22.922-1.681 16.083 8.818 28.925 24.569 30.052 17.351 1.241 29.424-9.904 29.37-27.115-.027-8.444-1.648-12.798-6.964-18.699-7.021-7.793-18.982-10.745-29.015-7.16m128.312-.35c-13.962 3.752-16.934 19.583-4.938 26.306 2.204 1.235 7.488 3.116 11.743 4.179 8.42 2.104 11.802 4.338 11.345 7.495-.856 5.913-15.314 6.175-21.492.388-6.261-5.865-15.254 2.24-9.201 8.293 5.444 5.444 20.442 8.461 29.662 5.968 11.384-3.079 16.589-15.148 10.327-23.943-2.285-3.209-9.292-6.554-17.26-8.241-7.739-1.638-11.02-3.54-10.642-6.168.757-5.257 11.564-5.996 18.524-1.266 4.498 3.055 7.363 3.229 9.752.589 5.269-5.822-7.544-15.29-20.263-14.973-1.486.038-4.886.655-7.557 1.373m-29.087 1.783C185.259 38.075 185 42.209 185 61.048c0 22.334.028 22.629 2.314 24.778 2.745 2.578 4.462 2.72 7.463.617 2.193-1.536 2.223-1.881 2.223-25.8 0-17.522-.333-24.576-1.2-25.443-2.058-2.058-7.508-1.456-9.243 1.023m-94.938 8.768c-9.265 2.915-13.53 15.375-8.353 24.405 3.076 5.364 7.873 7.829 14.304 7.348 8.264-.617 13.065-5.566 14.044-14.474.605-5.51-2.344-12.392-6.614-15.434-3.059-2.178-9.498-3.067-13.381-1.845m58 .043c-9.221 2.761-13.323 14.538-8.344 23.953 7.141 13.503 26.6 9.035 28.313-6.501.776-7.041-2.445-13.157-8.55-16.236-4.73-2.385-6.782-2.604-11.419-1.216"/></svg>