<?xml version="1.0" standalone="no"?>
<!DOCTYPE svg PUBLIC "-//W3C//DTD SVG 1.1//EN" "http://www.w3.org/Graphics/SVG/1.1/DTD/svg11.dtd">
<svg xmlns="http://www.w3.org/2000/svg" fill="white" width="446" height="180" viewBox="0 0 446 180"><path fill-rule="evenodd" d="M309 8.11a1019 1019 0 0 1-11.75 4.484L293 14.165v34.689l-5.709-3.438c-7.263-4.373-10.921-5.461-20.65-6.138C237.961 37.28 216 59.209 216 89.845c0 15.318 4.32 27.37 13.182 36.774 6.288 6.674 11.1 9.898 18.649 12.495 15.001 5.161 31.365 2.644 43.886-6.751l3.216-2.414 2.054 4.026 2.054 4.025h19.973l-.257-66.167c-.167-43.075-.606-66.248-1.257-66.401-.55-.129-4.375 1.076-8.5 2.678M151.402 21.421C134.19 25.349 123.274 36.42 122.239 51c-.609 8.581.924 13.767 5.66 19.148 5.347 6.074 12.489 9.281 29.823 13.388C178.632 88.492 181 89.648 181 94.897c0 3.086-3.027 6.412-7.315 8.036-4.604 1.745-16.629 1.276-21.264-.829-4.198-1.907-8.421-6.305-8.421-8.77 0-.768-.584-1.621-1.298-1.895C141.263 90.887 121 101.64 121 102.955c0 .455 1.5 3.013 3.334 5.686 17.684 25.777 66.058 23.74 79.308-3.341 3.849-7.868 3.91-17.976.146-24.398-4.868-8.307-12.491-12.156-35.507-17.926-8.676-2.175-16.901-4.791-18.278-5.814-3.831-2.846-3.842-7.278-.027-10.488 7.937-6.679 26.651-3.718 30.743 4.864.908 1.904 2.063 3.462 2.567 3.462C184.762 55 204 43.962 204 43.115c0-1.721-6.273-10.085-9.282-12.376-4.28-3.259-10.931-6.594-16.599-8.323-7.005-2.136-19.654-2.607-26.717-.995M46.275 40.539c-26.486 7.134-41.409 32.292-36.199 61.027 3.508 19.354 18.828 34.762 38.761 38.987 24.202 5.13 48.836-5.807 58.213-25.845 14.649-31.305-.198-65.954-31.766-74.134-7.452-1.931-21.904-1.949-29.009-.035m319.837.042c-11.932 3.209-23.831 11.965-29.573 21.762-9.028 15.406-9.642 34.826-1.616 51.157 6.355 12.93 15.556 21.094 28.968 25.701 9.402 3.23 24.851 3.218 34.299-.027 8.227-2.825 17.395-8.635 21.515-13.633 3.467-4.205 6.947-10.252 6.251-10.861-.251-.219-5.198-1.972-10.993-3.896l-10.537-3.496-3.483 3.633c-4.137 4.315-8.936 6.75-15.907 8.072-12.608 2.391-24.711-5.141-28.491-17.731l-.672-2.238 37.313-.262L430.5 98.5l.29-8.203c.845-23.925-13.721-43.876-36.332-49.766-7.292-1.899-21.189-1.875-28.346.05m5.647 21.842c-7.019 2.505-12.227 7.417-14.666 13.831L356.05 79h48.085l-.667-2.25c-.953-3.217-5.603-8.875-9.443-11.49-6.262-4.263-15.111-5.391-22.266-2.837M51.591 63.512c-18.94 7.236-23.329 34.651-7.794 48.686 4.942 4.465 10.012 6.232 17.766 6.192 15.086-.077 25.504-11.695 25.393-28.318-.109-16.291-9.633-26.908-24.856-27.707-4.226-.222-8.007.191-10.509 1.147m205.99 1.44c-16.232 6.543-21.534 27.769-10.68 42.753 5.799 8.005 18.061 11.525 29.244 8.395 21.63-6.057 23.929-39.851 3.423-50.322-5.866-2.996-15.688-3.365-21.987-.826m-142.499 80.007-6.136 8.959 2.277 1.491c4.92 3.222 16.712 7.947 25.766 10.326 13.979 3.672 33.779 4.224 47.805 1.332C198.632 164.213 218 156.5 218 153.842c0-1.411-11.114-17.842-12.068-17.842-.389 0-3.57 1.333-7.07 2.961-21.44 9.98-50.712 9.75-71.054-.558-2.608-1.322-5.157-2.403-5.665-2.403-.509 0-3.686 4.032-7.061 8.959"/></svg>