<?xml version="1.0" standalone="no"?>
<!DOCTYPE svg PUBLIC "-//W3C//DTD SVG 1.1//EN" "http://www.w3.org/Graphics/SVG/1.1/DTD/svg11.dtd">
<svg xmlns="http://www.w3.org/2000/svg" fill="white" width="1024" height="768" viewBox="0 0 1024 768"><path fill-rule="evenodd" d="M476.5 50.116c-154.81 7.926-293.589 60.846-376 143.379-39.249 39.307-63.015 83.07-71.142 131.005-2.336 13.778-2.336 45.222 0 59C43.424 466.462 105.892 538.827 208 590.447c117.033 59.165 268.059 81.364 415 61 106.134-14.709 201.165-51.218 271.39-104.262 39.978-30.197 70.419-65.598 89.12-103.64C998.273 413.512 1005 385.484 1005 354c0-70.92-38.968-138.95-110.715-193.285C792.057 83.298 635.891 41.956 476.5 50.116m9 20.931C266.613 79.953 87.261 183.438 59.006 317.132c-5.644 26.704-4.985 54.799 1.914 81.616C83.013 484.63 169.917 560.237 295 602.398c96.231 32.436 210.835 42.524 319.161 28.096 54.811-7.301 104.358-19.95 153.339-39.147 18.56-7.274 54.736-25.132 71.331-35.213 81.292-49.38 128.561-112.241 137.227-182.49 1.7-13.784.725-39.128-2.044-53.144-7.634-38.636-28.2-76.403-59.498-109.262-57.351-60.212-147.929-105.22-255.016-126.717-38.789-7.787-72.751-11.757-115.5-13.502-26.504-1.082-31.268-1.08-58.5.028m-201 157.777c-29.849 8.935-51.805 36.287-55.715 69.409-3.159 26.768 8.152 48.243 29.976 56.911 7.798 3.097 27.783 3.363 36.239.482 25.438-8.668 45.41-29.985 52.583-56.126 2.493-9.084 3.028-28.552 1.004-36.533-3.743-14.757-11.958-25.076-25.155-31.598-7.537-3.725-7.957-3.809-20.314-4.072-9.842-.21-13.938.126-18.618 1.527m121.772-.455c-13.833 3.531-25.753 12.887-30.989 24.324-3.488 7.619-3.651 17.533-.409 24.906 4.194 9.537 12.379 15.431 30.423 21.905 17.593 6.313 22.721 11.944 22.681 24.903-.015 4.705-.64 8.453-1.856 11.132-2.472 5.442-9.981 11.87-15.862 13.578-6.278 1.824-18.72 1.541-23.532-.535-9.479-4.09-15.932-14.217-18.135-28.462l-1.178-7.62H360.5l-4.208 20.5c-2.315 11.275-4.227 21.063-4.25 21.75-.025.75 1.257 1.254 3.208 1.259 2.447.007 3.899-.781 5.878-3.188l2.628-3.198 7.029 3.143c26.688 11.933 60.338 2.663 71.746-19.766 6.571-12.918 5.756-26.128-2.156-34.927-6.027-6.704-11.726-10.085-26.99-16.015-14.887-5.782-19.576-9.349-21.46-16.322-2.804-10.374 1.557-21.666 10.504-27.198 4.017-2.484 6.181-3.08 12.285-3.389 17.086-.862 24.909 7.49 27.04 28.872l.746 7.479 3.75.31c2.063.171 3.75.108 3.75-.139 0-.766 8.037-38.065 8.602-39.921.446-1.464-.121-1.75-3.467-1.75-3.296 0-4.372.524-6.12 2.979l-2.121 2.979-3.768-2.379c-2.073-1.308-5.986-3.136-8.697-4.063-6.572-2.247-21.469-2.853-28.157-1.147m68.523 1.575c-.412 2.81-.202 2.998 4.636 4.134 6.698 1.573 10.291 3.47 11.039 5.827.772 2.431-21.16 102.77-23.153 105.929-1.923 3.046-7.139 5.166-12.713 5.166-4.828 0-7.604 1.851-7.604 5.071 0 1.859 1.013 1.929 28.031 1.929 29.384 0 28.467.139 29.171-4.429.253-1.639-.666-2.105-6.131-3.111-6.409-1.18-10.071-3.751-10.071-7.073 0-3.184 22.157-100.79 23.445-103.281 1.712-3.31 4.467-4.639 12.718-6.136 6.423-1.164 7.794-2.08 7.822-5.22.014-1.626-1.998-1.75-28.372-1.75h-28.386zm96.925 53.487c-37.358 62.32-38.623 64.041-49.365 67.143-6.072 1.754-7.314 2.714-7.34 5.676-.014 1.618 1.783 1.75 23.868 1.75h23.884l.603-2.25c.331-1.238.609-2.529.616-2.87s-2.657-1.145-5.922-1.788c-3.264-.642-6.97-2.005-8.233-3.028-2.092-1.693-2.202-2.22-1.233-5.854.587-2.196 4.165-9.676 7.952-16.62l6.886-12.627 22.032.268 22.032.269 1.666 12c.916 6.6 1.704 14.374 1.75 17.275.077 4.865-.13 5.357-2.666 6.332-1.513.582-5.192 1.46-8.176 1.952-5.501.906-7.031 2.031-7.059 5.191-.014 1.621 1.855 1.75 25.378 1.75 22.233 0 25.469-.197 26-1.582 1.205-3.139.537-4.122-3.643-5.358-4.785-1.415-7.345-3.375-9.27-7.098-.723-1.398-4.964-27.274-9.425-57.502-4.46-30.228-8.331-55.972-8.602-57.21-.404-1.853-1.149-2.243-4.222-2.21l-3.731.04zm112.664-54.989c-1.243 3.238.132 4.931 5.016 6.177 6.083 1.552 7.806 3.217 7.777 7.517-.026 3.81-20.582 97.835-22.342 102.191-1.576 3.902-4.523 5.573-11.939 6.767-3.49.562-6.406 1.108-6.48 1.214s-.442 1.47-.817 3.032l-.682 2.839 34.291-.422c39.175-.482 42.817-1.046 59.292-9.181 25.588-12.636 41.059-36.143 43.158-65.578 2.04-28.61-12.811-48.883-39.866-54.42-10.86-2.223-66.564-2.336-67.408-.136M291.5 235.355c-18.999 4.888-33.522 24.473-39.778 53.645-2.953 13.768-2.938 31.124.035 40.635 4.803 15.364 17.387 23.288 32.537 20.488 8.813-1.63 14.642-4.924 22.245-12.573 13.029-13.108 21.058-34.191 22.179-58.236.651-13.969-.559-22.05-4.51-30.132-2.803-5.736-7.7-10.654-12.678-12.734-4.816-2.012-14.421-2.536-20.03-1.093m427.944-.59c-1.387.966-23.447 100.523-23.445 105.811.002 5.877 2.94 8.282 11.627 9.517 32.784 4.659 60.272-24.166 63.019-66.083 1.723-26.29-8.636-43.975-28.498-48.65-6.039-1.421-20.953-1.812-22.703-.595M583.165 280.75l-14.079 23.75 18.101.273c9.955.15 18.241.132 18.414-.041.559-.558-7.08-47.732-7.729-47.732-.346 0-6.964 10.688-14.707 23.75M373.33 387.031c-9.928 3.935-15.859 13.921-13.314 22.416 1.706 5.694 6.386 9.547 16.194 13.333 9.737 3.759 12.759 6.432 13.424 11.872 1.037 8.478-5.92 15.351-15.532 15.344-9.501-.006-15.413-5.395-16.726-15.246-.495-3.708-1.036-4.75-2.466-4.75-1.948 0-2.744 2.194-4.902 13.5-.63 3.3-1.37 6.788-1.644 7.75-.637 2.236 2.303 2.361 4.691.2 1.551-1.404 2.285-1.357 7.797.5 18.98 6.394 38.451-3.948 38.547-20.475.045-7.659-4.416-12.471-15.346-16.552-9.734-3.636-11.847-4.969-13.545-8.547-2.682-5.653-.111-12.979 5.591-15.927 3.673-1.9 10.235-1.845 14.029.117 3.598 1.861 6.818 8.295 6.85 13.684.019 3.238.336 3.75 2.317 3.75 2.378 0 2.375.009 6.472-19.75.364-1.758.014-2.25-1.601-2.25-1.137 0-2.501.776-3.032 1.725-.91 1.626-1.188 1.618-4.8-.137-5.827-2.832-16.607-3.093-23.004-.557M433 415.155c-18.194 29.576-21.56 33.956-27.178 35.357-1.472.368-2.926 1.316-3.229 2.107-.467 1.215 1.492 1.395 12.595 1.16 9.078-.193 13.271-.648 13.544-1.472.234-.703-1.052-1.464-3.132-1.854-6.077-1.14-6.361-2.576-2.122-10.725 2.068-3.976 4.223-7.804 4.789-8.508.754-.939 4.122-1.206 12.629-1l11.601.28 1.273 8.372c1.47 9.669 1.067 10.642-4.828 11.638-2.414.408-3.942 1.213-3.942 2.078 0 1.149 2.61 1.412 14 1.412 11.698 0 14-.244 14-1.481 0-.814-1.092-1.755-2.426-2.09-4.85-1.217-5.336-2.869-10.229-34.724-4.437-28.882-4.839-30.703-6.781-30.665-1.615.032-6.088 6.582-20.564 30.115m57.188-27.416c.184.956 1.23 1.904 2.323 2.107 2.988.555 4.489 2.134 4.489 4.724 0 3.883-11.091 50.776-12.555 53.086-.857 1.35-2.877 2.41-5.406 2.837-2.49.421-4.039 1.224-4.039 2.095 0 1.18 4.34 1.412 26.468 1.412h26.468l2.664-8.75c1.465-4.812 2.878-9.312 3.139-10 1.018-2.681-3.349-1.076-5.461 2.007-3.55 5.183-10.349 11.732-12.656 12.191-10.522 2.094-18.392 1.34-19.171-1.836-.718-2.925 11.2-53.569 13.1-55.668.847-.937 3.32-1.988 5.495-2.335 2.551-.408 3.954-1.161 3.954-2.121 0-1.249-2.337-1.488-14.573-1.488-13.305 0-14.544.151-14.239 1.739M548 387.32c0 .725 1.462 1.963 3.25 2.75 2.233.982 3.341 2.212 3.541 3.93.161 1.375-1.805 11.5-4.367 22.5-5.121 21.984-5.59 27.422-2.71 31.393 3.303 4.555 10.791 7.555 18.777 7.524 9.915-.04 16.796-2.609 22.639-8.451 5.441-5.442 6.669-8.8 12.414-33.942 4.292-18.784 5.445-21.045 11.697-22.937 2.569-.778 4.906-2.028 5.194-2.778.43-1.12-2.006-1.314-13.624-1.086-9.862.193-14.267.639-14.544 1.471-.229.692 1.264 1.641 3.552 2.257 6.1 1.643 6.669 2.863 5.279 11.323-2.155 13.126-8.077 35.955-10.228 39.437-7.922 12.817-30.423 12.979-32.492.233-.695-4.283 9.013-46.747 11.186-48.93.814-.817 3.121-1.947 5.128-2.51 2.006-.562 3.834-1.581 4.061-2.264.317-.949-3.007-1.24-14.17-1.24-11.41 0-14.583.287-14.583 1.32m76.178.367c.18.931 1.78 2.064 3.574 2.528 2.669.692 3.245 1.327 3.23 3.564-.029 4.339-11.573 53.024-12.974 54.711-.697.84-2.982 1.802-5.076 2.137-2.095.335-4.047 1.231-4.339 1.991-.439 1.143 2.477 1.382 16.889 1.382 9.581 0 19.804-.497 22.719-1.105 13.345-2.783 25.074-11.844 30.603-23.642 2.395-5.111 2.696-6.933 2.696-16.323 0-9.9-.177-10.837-2.8-14.803-3.421-5.175-10.229-9.646-16.848-11.065-2.723-.584-12.386-1.062-21.475-1.062-14.963 0-16.493.159-16.199 1.687m18.567 2.963c-.274.467-3.312 13.125-6.752 28.127-6.036 26.325-6.192 27.345-4.469 29.25 1.448 1.6 3.087 1.973 8.663 1.973 7.45 0 11.873-1.419 17.281-5.543 7.955-6.068 13.532-19.194 13.532-31.85 0-8.646-2.529-14.423-8.339-19.046-3.403-2.708-4.722-3.094-11.629-3.408-4.284-.195-8.014.029-8.287.497m-198.017 14.006C437.704 415.829 432 425.207 432 425.579c0 .232 4.53.421 10.067.421 9.114 0 10.02-.166 9.562-1.75-.277-.962-1.233-6.463-2.123-12.223s-1.786-10.64-1.99-10.844c-.204-.205-1.459 1.358-2.788 3.473M341 521.848c0 .457 1.138 1.349 2.528 1.983 1.391.633 2.781 1.811 3.09 2.616.531 1.383-4.145 14.787-7.272 20.846-.793 1.536-2.507 3.198-3.809 3.693-3.025 1.15-8.664-.364-11.011-2.957-1.712-1.892-1.683-2 .851-3.155 5.067-2.309 1.896-7.386-4.176-6.686-3.174.367-4.123 3.72-2.116 7.47 1.981 3.702 12.238 8.342 18.44 8.342 7.461 0 9.34-1.89 13.935-14.025l3.861-10.195 3.84.515c5.107.685 4.883-.74-.411-2.603-2.337-.823-7.288-2.661-11-4.085-3.712-1.425-6.75-2.216-6.75-1.759m363 6.136c-.825.476-3.712 1.429-6.416 2.118-5.829 1.483-11.584 6.143-11.584 9.379 0 4.156 2.143 4.837 12.829 4.08 8.271-.587 10.019-.449 11.115.872 1.067 1.285 1.067 1.848.001 3.133-3.58 4.314-11.935 5.731-17.299 2.933-3.677-1.917-4.865-1.122-3.418 2.287 1.781 4.196 2.428 4.569 4.91 2.83 1.269-.889 3.52-1.616 5.002-1.616 4.199 0 11.217-3.447 14.174-6.962 3.216-3.821 3.277-4.447.686-7.038-2.172-2.172-5.989-2.457-14.407-1.075-6.063.995-8.593.401-8.593-2.019 0-4.027 8.135-6.841 14.094-4.875 4.671 1.541 5.376 1.094 3.783-2.402-1.247-2.737-2.345-3.107-4.877-1.645m-72.779 12.98c-9.774 2.079-11.315 3.036-4.888 3.036 3.445 0 4.667.386 4.667 1.474 0 1.335-3.136 9.673-7.492 19.919l-1.655 3.894-5.505-5.394c-3.028-2.966-7.327-7.548-9.553-10.182l-4.047-4.79 3.126-1.18c5.963-2.25 3.07-2.364-7.873-.308-10.924 2.053-14.139 3.567-7.574 3.567 3.097 0 4.614 1.255 15.726 13 6.764 7.15 13.034 13 13.933 13 1.151 0 3.204-3.776 6.933-12.75 7.857-18.906 9.614-22.12 12.489-22.841 2.531-.635 3.531-2.494 1.242-2.307-.687.056-4.976.894-9.529 1.862m-268.971 1.608c3.196 1.734 3.287 2.566 1.174 10.72-1.152 4.448-1.298 6.689-.543 8.346 1.71 3.753 6.819 5.807 14.369 5.777 4.669-.019 6.75.35 6.75 1.196 0 .673 2.272 1.711 5.049 2.306 7.098 1.522 9.093 1.351 5.701-.489-3.3-1.79-3.389-3.333-.778-13.39 1.066-4.104 1.778-7.622 1.582-7.817-.363-.363-11.448-3.121-12.804-3.185-.413-.02-.75.414-.75.964s.845 1 1.878 1c3.842 0 4.48 2.417 2.632 9.96-1.631 6.656-1.87 7.017-5.033 7.61-4.335.814-8.856-.226-10.924-2.511-1.542-1.704-1.515-2.375.396-9.86 1.128-4.418 2.051-8.482 2.051-9.033 0-.976-8.414-3.206-11.799-3.126-1.162.027-.83.512 1.049 1.532m299.896 0c-7.905 2.126-14.293 7.11-15.601 12.17-.318 1.232.088 3.836.902 5.786 5.311 12.711 35.553 4.834 35.553-9.261 0-4.063-3.311-7.981-7.795-9.227-4.714-1.309-6.484-1.237-13.059.532m-3.869 3.401c-5.584 3.404-5.669 11.836-.166 16.467 3.444 2.898 6.428 3.197 11.355 1.139 6.727-2.811 8.265-11.34 3.059-16.957-3.051-3.293-9.435-3.584-14.248-.649M404 552.812c0 .534 1.075 1.241 2.39 1.571 3.287.825 3.483 1.976 1.85 10.867-1.389 7.564-1.493 7.75-4.332 7.75-5.967 0-2.607 1.755 6.092 3.183 9.068 1.487 11.196 1.139 6.398-1.048-1.988-.905-2.477-1.711-2.072-3.41.292-1.224.841-4.375 1.22-7.003.793-5.494 2.338-6.722 8.454-6.722 7.998 0 9.609 2.328 7.879 11.391-1.343 7.039-2.506 8.94-5.058 8.272-1.001-.261-2.034-.128-2.297.297-.262.425 3 1.312 7.249 1.971 4.25.659 8.515 1.424 9.477 1.701.962.276 1.75.071 1.75-.456 0-.528-1.125-1.242-2.5-1.587-2.858-.717-2.917-1.181-1.342-10.716 1.149-6.956 1.137-7.033-1.525-9.692-2.512-2.509-3.258-2.681-11.659-2.681-6.333 0-8.975-.355-8.974-1.205 0-.662-1.687-1.48-3.75-1.817a365 365 0 0 1-6.5-1.125c-1.512-.281-2.75-.075-2.75.459m51.813 3.438c-.298 3.095-.492 3.236-4.063 2.957-4.755-.372-4.923 1.482-.214 2.366l3.537.663-.595 6.132c-.327 3.373-.79 7.098-1.03 8.279-.239 1.182.402 3.181 1.425 4.445 1.522 1.879 3.08 2.374 8.572 2.724 4.184.266 7.134.005 7.834-.695.828-.828.302-1.121-2.014-1.121-1.724 0-4.289-.439-5.7-.975-2.818-1.072-3.224-3.938-1.912-13.51l.653-4.763 5.347.552c2.945.304 5.347.143 5.347-.357 0-.968-2.617-1.726-7.5-2.173-2.819-.257-2.98-.501-2.673-4.024.32-3.684.264-3.75-3.187-3.75-3.233 0-3.538.26-3.827 3.25m88.787 7.228c-4.254 1.516-5.708 3.076-4.88 5.235.339.882 1.683 1.283 3.658 1.091 2.538-.247 3.179-.799 3.429-2.953.245-2.117.974-2.775 3.626-3.273 5.561-1.043 9.567 1.42 9.567 5.881 0 .795-3.377 2.139-8.75 3.48-10.89 2.719-13.477 4.274-13.06 7.85.599 5.143 10.426 6.931 18.337 3.338 3.372-1.532 4.233-1.61 5.29-.478 1.469 1.573 10.755 1.852 11.683.351.345-.559-.423-1-1.741-1-3.841 0-4.759-1.856-4.759-9.627 0-6.617-.223-7.403-2.635-9.3-3.178-2.5-13.544-2.812-19.765-.595m-61.212.955c-6.885 2.997-9.552 10.033-5.822 15.358 4.432 6.327 20.289 8.984 28.728 4.814 9.4-4.645 8.76-15.184-1.181-19.461-5.824-2.505-16.779-2.864-21.725-.711m5.387 1.126c-3.598 1.952-4.775 4.365-4.775 9.786 0 3.772.485 4.885 3.077 7.066 7.177 6.04 17.923 1.603 17.923-7.4 0-5.425-1.412-7.868-5.548-9.596-4.259-1.779-7.207-1.739-10.677.144m64.494 8.528c-6.91 2.189-9.017 4.508-6.821 7.51 1.571 2.15 7.778 2.423 11.369.501 1.744-.933 2.183-2.067 2.183-5.633 0-2.456-.112-4.44-.25-4.409s-3.054.945-6.481 2.031"/></svg>