<?xml version="1.0" standalone="no"?>
<!DOCTYPE svg PUBLIC "-//W3C//DTD SVG 1.1//EN" "http://www.w3.org/Graphics/SVG/1.1/DTD/svg11.dtd">
<svg xmlns="http://www.w3.org/2000/svg" fill="white" width="289" height="276" viewBox="0 0 289 276"><path fill-rule="evenodd" d="M0 134.51v73.497l144.75-.254 144.75-.253.256-73.5.257-73.5-145.007.257L0 61.013zm.467-.01c-.003 48.305.175 61.673.514 38.5.483-33.017.608-34.975 1.797-28 3.459 20.304 20.183 38.108 40.853 43.492 5.003 1.303 22.043 1.508 125.54 1.508h119.751l.333 8.75c.184 4.813.334-24.55.334-65.25s-.15-70.062-.334-65.25l-.333 8.75h-115.33c-97.403 0-116.633.23-123.711 1.481-14.729 2.602-22.912 6.712-32.266 16.206-8.086 8.208-13.174 17.783-15.084 28.389-1.255 6.97-1.359 5.284-1.697-27.576-.199-19.25-.363-1.7-.367 39m.008 0c0 40.7.124 57.204.275 36.676s.151-53.828 0-74C.598 77.004.475 93.8.475 134.5M56 79.648c-17.41 2.615-31.135 9.229-39.309 18.943-4.061 4.825-9.445 15.505-11.12 22.053-7.644 29.894 13.235 62.155 42.929 66.332 4.262.599 52.659.992 123.75 1.004L289 188V79l-115.25.136c-63.388.075-116.375.305-117.75.512M45.281 92.906c-20.086 5.171-34.542 26.56-31.322 46.345 3.98 24.452 27.645 40.49 50.691 34.354 7.482-1.992 14.776-6.284 19.79-11.644 19.461-20.806 12.933-54-13.007-66.139-5.228-2.446-8.135-3.117-14.723-3.396-4.516-.192-9.658.024-11.429.48m2.98 2.109c-16.627 2.425-30.937 18.255-32.04 35.442-.261 4.068-.184 8.554.171 9.97l.646 2.573h18.481C50.044 143 54 142.721 54 141.696c0-1.457-6.085-7.696-7.505-7.696-.501 0-2.617 1.666-4.703 3.703L38 141.406v-3.599c0-2.863.718-4.23 3.505-6.677 3.732-3.277 5.691-3.208 10.817.383 1.168.818 3.123 1.487 4.346 1.487 1.942 0 2.261.599 2.527 4.75l.305 4.75 5.25.302 5.25.303v-4.553c0-4.238.18-4.552 2.606-4.552 1.433 0 3.942-1.125 5.576-2.5 3.949-3.322 5.664-3.162 11.174 1.046L94 136.092v-2.921c0-1.607-.284-4.341-.631-6.077l-.631-3.156-26.87.281c-14.778.155-26.869.121-26.869-.075.001-.196 1.389-2.108 3.085-4.25L45.168 116h21.916c12.054 0 21.916-.256 21.916-.57s-1.366-2.555-3.035-4.981c-7.836-11.39-22.968-17.584-37.704-15.434m58.662 21.908c-8.031 8.031 1.416 21.227 11.393 15.914 3.501-1.865 4.618-4.026 4.652-8.998.027-3.997-.406-5.03-3.045-7.25-4.304-3.622-9.169-3.497-13 .334m29.532-.468c-4.221 4.22-2.562 7.631 4.655 9.575 2.211.595 3.85 1.591 3.642 2.213-.609 1.829-2.404 1.962-4.064.302-.85-.85-2.734-1.545-4.186-1.545-2.159 0-2.583.406-2.322 2.225.442 3.073 4.47 4.942 9.569 4.439 5.38-.529 7.251-2.09 7.251-6.046 0-3.453-1.667-4.947-6.771-6.068-3.702-.813-5.301-2.55-2.347-2.55 1.1 0 2.278.45 2.618 1s1.716 1 3.059 1c3.174 0 3.305-3.281.218-5.443-3.389-2.374-8.452-1.973-11.322.898M162 124.009v10.124l2.75-.317c2.409-.277 2.799-.812 3.144-4.316l.394-4 1.196 4c.957 3.2 1.669 4 3.558 4 1.939 0 2.55-.749 3.41-4.18 1.473-5.875 2.181-6.059 2.109-.548-.057 4.432.111 4.748 2.689 5.044l2.75.317v-20.248l-4.192.308c-3.872.284-4.256.574-5.043 3.807-1.556 6.399-2.007 6.613-3.15 1.5-1.111-4.964-1.15-5.002-5.367-5.307l-4.248-.308zm38.901-7.259c-1.963 5.14-5.074 13.744-5.605 15.5-.422 1.396.079 1.75 2.48 1.75 1.753 0 3.25-.626 3.586-1.5.316-.825 1.728-1.5 3.138-1.5s2.822.675 3.138 1.5c.577 1.504 6.362 2.188 6.362.752 0-.411-1.387-4.911-3.082-10-2.957-8.875-3.203-9.252-6.025-9.252-2.289 0-3.176.611-3.992 2.75m23.283 0c.226 1.969.955 2.841 2.566 3.07 2.086.296 2.25.824 2.25 7.25V134h7v-7.329c0-6.958.114-7.326 2.25-7.25 1.736.061 2.322-.55 2.566-2.671l.317-2.75h-17.266zm29.662 6.954-3.621 9.796 2.588.336c1.532.199 3.062-.312 3.748-1.25 1.469-2.01 6.04-2.067 6.801-.086.454 1.184 6.641 2.349 6.637 1.25 0-.137-1.524-4.525-3.387-9.75-3.139-8.806-3.596-9.522-6.265-9.796-2.79-.287-2.992.008-6.501 9.5M111.2 120.2c-1.709 1.709-1.484 6.319.384 7.87 2.166 1.798 4.82.034 5.238-3.481.53-4.458-2.886-7.125-5.622-4.389m92.405 4.388c-.855 2.228-.787 2.412.895 2.412.825 0 1.5-.648 1.5-1.441 0-2.116-1.693-2.802-2.395-.971M259 125c0 1.1.45 2 1 2s1-.9 1-2-.45-2-1-2-1 .9-1 2m-235.782 3.461c1.805 2.454 3.507 4.469 3.782 4.479.596.021 6-7.5 6-8.35 0-.324-2.939-.59-6.532-.59h-6.531zM126 131c0 2.828.268 3.102 2.75 2.816 2.182-.251 2.75-.832 2.75-2.816s-.568-2.565-2.75-2.816c-2.482-.286-2.75-.012-2.75 2.816m27 0c0 2.667.333 3 3 3s3-.333 3-3-.333-3-3-3-3 .333-3 3m34.362-1.5c-.958 2.495.427 4.5 3.107 4.5 2.146 0 2.531-.457 2.531-3s-.385-3-2.531-3c-1.393 0-2.791.675-3.107 1.5M216 131c0 2.667.333 3 3 3s3-.333 3-3-.333-3-3-3-3 .333-3 3m27.667-2.333c-.367.366-.667 1.716-.667 3 0 1.926.524 2.333 3 2.333 2.667 0 3-.333 3-3 0-2.476-.407-3-2.333-3-1.284 0-2.634.3-3 .667M272 131c0 2.828.268 3.102 2.75 2.816 2.182-.251 2.75-.832 2.75-2.816s-.568-2.565-2.75-2.816c-2.482-.286-2.75-.012-2.75 2.816M74.996 142.461l-7.496 8.46-24.167.04c-18.427.03-24.286-.258-24.671-1.211-.34-.843-.53-.873-.583-.092-.112 1.636 8.043 11.436 12.061 14.495 15.637 11.907 36.28 11.301 50.468-1.481 4.843-4.364 12.478-16.636 12.328-19.818-.062-1.312-8.375-8.854-9.758-8.854-.377 0-4.059 3.807-8.182 8.461m194.309-.211c-1.544 2.054-4.328 10.06-3.712 10.676.314.314 1.146-.216 1.849-1.178 1.574-2.152 5.558-2.33 5.558-.248 0 .825.45 1.5 1 1.5 1.514 0 1.209-2.346-.964-7.417-2.144-5.001-2.343-5.179-3.731-3.333m-165.355 1.843c-1.483 2.771-.44 6.574 2.188 7.981 4.922 2.634 10.073-3.973 6.326-8.114-2.39-2.64-7.069-2.567-8.514.133m11.05 3.35V153l3.25-.015c4.748-.023 5.61-.976 5.42-5.995l-.17-4.49-4.25-.307-4.25-.308zm11 0c0 3.056.45 5.557 1 5.557s1-1.125 1-2.5c0-1.825.535-2.5 1.981-2.5 1.279 0 2.203.886 2.608 2.5.702 2.797 4.102 3.47 5.049 1 .785-2.045 4.042-1.895 5.237.242 1.897 3.389 2.305.317.628-4.732-2.087-6.285-4.223-6.352-6.274-.197-1.659 4.978-2.471 4.811-2.622-.54-.105-3.705-.184-3.779-4.357-4.08l-4.25-.308zm25-3.943c-1.544 1.86.254 4.5 3.063 4.5 1.001 0 2.099.453 2.441 1.007.972 1.573-2.352 2.364-4.041.962-2.156-1.789-3.178-.256-1.169 1.753 1.314 1.314 2.269 1.466 4.431.706 3.984-1.401 4.165-4.266.359-5.702-4.068-1.536-3.964-3.078.146-2.175 2.908.638 3.096.546 1.878-.921-1.694-2.041-5.464-2.11-7.108-.13m10.2-.3c-2.9 2.9-.102 9.8 3.974 9.8 2.232 0 4.826-3.295 4.826-6.129 0-3.182-1.734-4.871-5-4.871-1.43 0-3.14.54-3.8 1.2m10.835.734c-1.57 2.935-1.247 5.564.925 7.53 2.291 2.073 6.472 1.458 7.453-1.098.967-2.52-.392-3.115-2.022-.887-1.138 1.557-1.811 1.748-3.168.897-2.38-1.492-2.788-5.222-.661-6.038.937-.36 2.587-.101 3.668.573 2.422 1.513 3.502.676 1.79-1.387-1.822-2.195-6.725-1.943-7.985.41m9.965 2.924c0 5.105 1.895 8.406 2.125 3.701.069-1.407.181-3.759.25-5.226.069-1.466-.437-2.854-1.125-3.083-.889-.296-1.25 1.033-1.25 4.608m5.609-.838c-1.843 4.605-2.05 6.98-.609 6.98.55 0 1-.675 1-1.5 0-.933.944-1.5 2.5-1.5s2.5.567 2.5 1.5c0 .825.45 1.5 1 1.5 1.415 0 1.246-1.789-.636-6.717-.9-2.355-2.201-4.283-2.891-4.283-.691 0-1.98 1.809-2.864 4.02M197 147.5v5.5h3.5c1.925 0 3.5-.45 3.5-1s-1.125-1-2.5-1c-2.296 0-2.5-.367-2.5-4.5 0-2.475-.45-4.5-1-4.5s-1 2.475-1 5.5m12.59-3.873c-.782 2.038 1.073 4.373 3.473 4.373 1.001 0 2.099.453 2.441 1.007.906 1.466-2.434 2.463-3.771 1.126-1.387-1.387-2.733-1.47-2.733-.168 0 1.954 4.125 3.299 6.626 2.159 3.272-1.49 2.974-4.071-.626-5.43-4.002-1.511-3.838-3.037.23-2.143 2.908.638 3.096.546 1.878-.921-1.765-2.127-6.703-2.129-7.518-.003m13.41 3.8c0 5.824 1.939 7.989 2.082 2.323l.081-3.25 1.421 3.25c1.771 4.049 3.063 4.135 3.913.261.859-3.908 2.338-4.773 2.15-1.256-.081 1.51.303 2.97.853 3.245.586.293 1.125-1.672 1.302-4.75.272-4.726.098-5.25-1.75-5.25-1.128 0-2.052.421-2.052.935s-.502 2.202-1.116 3.75l-1.116 2.815-1.223-3.5c-.672-1.925-1.97-3.645-2.884-3.823-1.388-.271-1.661.592-1.661 5.25m18.528-.861c-1.182 3.094-2.192 4.393-3.136 4.031-.765-.294-1.392.07-1.392.809 0 .767 1.074 1.344 2.5 1.344 1.455 0 2.5-.575 2.5-1.375 0-1.969 4.033-1.699 5.608.375 1.252 1.649 1.33 1.65 1.36.02.053-2.852-3.092-9.77-4.441-9.77-.69 0-2.04 2.055-2.999 4.566M254 143c0 .55.675 1 1.5 1 1.115 0 1.5 1.176 1.5 4.583 0 5.902 2.368 5.556 2.807-.411.209-2.826.773-4.172 1.75-4.172.794 0 1.443-.45 1.443-1s-2.025-1-4.5-1-4.5.45-4.5 1m-147.88 2.776c-1.129 2.109.291 5.224 2.38 5.224 1.853 0 3.361-2.816 2.753-5.142-.618-2.361-3.885-2.414-5.133-.082M117 145c0 .55.9 1 2 1s2-.45 2-1-.9-1-2-1-2 .45-2 1m11 0c0 .55.873 1 1.941 1s2.219-.45 2.559-1c.351-.567-.49-1-1.941-1-1.407 0-2.559.45-2.559 1m34.465.057c-1.152 1.863.477 6.101 2.214 5.759 2.179-.429 3.779-3.18 3.012-5.18-.701-1.826-4.215-2.216-5.226-.579m-22.882.809c-.431.697-.513 1.537-.183 1.867.895.895 1.871-.421 1.387-1.871-.338-1.016-.574-1.016-1.204.004m50.055.634c-.347.905-.005 1.5.862 1.5s1.209-.595.862-1.5c-.317-.825-.705-1.5-.862-1.5s-.545.675-.862 1.5m54.362 0c0 .825.436 1.5.969 1.5s.709-.675.393-1.5c-.317-.825-.753-1.5-.969-1.5s-.393.675-.393 1.5m25.583-.634c-.431.697-.513 1.537-.183 1.867.895.895 1.871-.421 1.387-1.871-.338-1.016-.574-1.016-1.204.004M117 149.57c0 1.042.729 1.462 2.172 1.25 3.201-.472 3.544-2.82.411-2.82-1.68 0-2.583.549-2.583 1.57m102.469 1.48c-.95 1.538.351 2.53 1.635 1.246.718-.718.735-1.277.052-1.699-.56-.346-1.319-.142-1.687.453m31.531.45c0 .825.45 1.5 1 1.5s1-.675 1-1.5-.45-1.5-1-1.5-1 .675-1 1.5m11.583-.634c-.431.697-.513 1.537-.183 1.867.895.895 1.871-.421 1.387-1.871-.338-1.016-.574-1.016-1.204.004m14.014-.022c-.346.56-.142 1.319.453 1.687 1.538.95 2.53-.351 1.246-1.635-.718-.718-1.277-.735-1.699-.052"/></svg>