<?xml version="1.0" standalone="no"?>
<!DOCTYPE svg PUBLIC "-//W3C//DTD SVG 1.1//EN" "http://www.w3.org/Graphics/SVG/1.1/DTD/svg11.dtd">
<svg xmlns="http://www.w3.org/2000/svg" fill="white" width="3508" height="1039" viewBox="0 0 3508 1039"><path fill-rule="evenodd" d="M647.051 155.078c-53.505 6.033-102.591 30.926-143.065 72.551-19.907 20.473-33.521 39.843-45.596 64.871-23.801 49.336-28.471 101.351-13.273 147.858 10.488 32.094 32.93 61.17 61.31 79.434 16.295 10.486 39.01 19.044 60.573 22.821 14.064 2.463 44.175 2.476 58.457.026 39.788-6.828 75.958-23.008 108.732-48.639 10.164-7.949 31.283-28.828 39.449-39 28.556-35.572 45.769-75.207 51.427-118.421 1.765-13.477.72-43.464-1.981-56.878-6.177-30.669-19.442-56.562-39.89-77.867-23.744-24.738-51.874-39.3-87.694-45.398-11.167-1.901-37.173-2.63-48.449-1.358M220.5 190.063c-16.776 2.283-33.282 7.995-46.509 16.097-10.779 6.603-26.815 22.445-33.24 32.84-12.253 19.822-18.976 47.314-17.242 70.5 5.553 74.231 63.796 139.069 137.491 153.06 13.617 2.585 36.341 2.461 49-.267 44.866-9.67 75.675-40.581 85.078-85.359 3.061-14.576 3.084-35.113.056-50.662-14.575-74.857-82.017-134.201-155.396-136.738-6.731-.233-15.388.006-19.238.529M639 210.615c-30.645 2.57-59.099 12.326-85 29.141-12.667 8.224-19.391 13.61-30.855 24.714-17.842 17.282-30.713 35.047-41.112 56.743-45.64 95.229 1.637 192.421 97.632 200.712 43.344 3.744 90.034-12.397 127.996-44.249 32.878-27.585 56.591-66.891 65.327-108.282 3.052-14.458 3.751-37.625 1.58-52.321-8.062-54.553-47.384-95.279-100.897-104.498-8.822-1.52-27.398-2.57-34.671-1.96m-10.77 15.49c-23.527 2.735-49.527 12.339-70.23 25.94-13.087 8.598-21.777 15.89-33.5 28.11-42.053 43.839-58.419 104.341-41.638 153.927 5.961 17.613 14.658 31.331 27.967 44.112 16.203 15.56 33.053 24.369 56.375 29.47 12.597 2.756 39.719 2.487 53.796-.532 34.164-7.327 63.67-23.676 89.238-49.446 52.374-52.786 65.629-130.419 31.147-182.434-11.206-16.904-30.105-32.786-47.761-40.136-20.22-8.418-43.23-11.588-65.394-9.011m-391.73 3.499c-22.382 3.316-38.167 10.939-52.59 25.398-12.21 12.241-20.046 27.444-23.45 45.498-2.422 12.844-1.586 33.397 1.904 46.813 12.664 48.681 53.378 88.001 102.911 99.386 11.218 2.578 36.742 2.273 47.225-.565 16.285-4.409 29.738-12.383 41.136-24.385 22.274-23.455 29.37-56.597 19.83-92.615-12.391-46.785-53.515-86.592-100.466-97.247-8.221-1.866-30.085-3.233-36.5-2.283m4.5 10.375c-20.739 2.622-37.495 11.017-50.628 25.362-7.794 8.514-12.778 17.158-16.409 28.461C158.558 341.75 185.449 399.387 236 426.769c9.509 5.151 22.477 9.692 33.725 11.809 11.718 2.205 31.771 1.502 41.775-1.466 22.756-6.75 39.96-21.193 49.568-41.612 5.642-11.989 7.043-18.247 7.615-34 .58-15.977-1.088-26.459-6.616-41.586-12.07-33.029-41.558-61.973-75.567-74.174-13.917-4.993-32.736-7.376-45.5-5.761m382 26.675c-24.615 2.344-49.241 11.895-69.097 26.798-23.494 17.632-42.801 44.506-51.297 71.402-8.154 25.811-7.089 55.245 2.771 76.586 12.098 26.186 34.447 43.929 63.123 50.115 9.798 2.114 29.93 2.38 40.5.536 41.909-7.314 81.526-37.678 101.435-77.745 23.432-47.158 15.52-99.444-19.299-127.526-8.371-6.751-24.021-14.76-33.636-17.213-10.693-2.728-24.481-3.908-34.5-2.953m-380 3.939c-13.39 3.557-26.613 12.004-33.892 21.651-9.685 12.836-13.487 24.824-13.403 42.256.072 14.855 2.276 23.96 9.201 38 13.533 27.438 37.893 47.195 66.741 54.128 9.26 2.226 26.816 2.221 35.353-.01 43.184-11.285 60.434-59.072 37.403-103.618-13.448-26.011-37.694-45.546-64.51-51.974-10.201-2.445-28.509-2.66-36.893-.433M3381 352.5c0 25.575-.197 46.5-.438 46.5-.24 0-4.693-2.885-9.894-6.412-22.303-15.121-40.607-20.672-68.168-20.672-32.452 0-57.761 9.125-77.867 28.075-20.289 19.122-30.641 42.717-32.251 73.509-2.182 41.701 14.878 78.192 46.37 99.186 20.584 13.722 47.757 20.193 73.521 17.508 25.316-2.639 42.394-9.684 61.446-25.346l7.219-5.935.281 12.293.281 12.294h47l.254-138.75.253-138.75H3381zm-475.333-35.833c-.367.366-.667 62.916-.667 139V594h48V316h-23.333c-12.834 0-23.634.3-24 .667M1020 320.59c-45.57 3.939-76.996 15.493-94.864 34.879-21.732 23.575-25.286 62.198-8.09 87.907 12.4 18.541 33.302 31.422 64.18 39.553 14.427 3.799 15.188 3.926 66.274 10.999 54.028 7.48 61.588 9.07 74.912 15.755 22.726 11.403 24.828 33.038 4.589 47.235-22.187 15.564-68.71 21.147-109.76 13.172-30.622-5.948-52.564-20.332-64.137-42.046l-3.088-5.795-26.589 8.376C908.804 535.231 896.65 539 896.42 539c-2.108 0 4.153 14.491 10.237 23.692 2.112 3.195 7.215 9.368 11.341 13.719 21.298 22.46 52.059 36.573 94.002 43.127 14.163 2.213 56.817 3.11 72.629 1.527 53.58-5.365 89.322-24.003 104.638-54.565 6.597-13.165 9.727-31.79 7.829-46.589-4.289-33.447-26.557-54.855-70.096-67.39-13.253-3.815-28.095-6.463-75.5-13.471-42.826-6.33-49.243-7.461-59.926-10.557-15.182-4.399-24.806-10.629-27.513-17.808-1.811-4.805-1.248-12.741 1.29-18.192 5.231-11.232 20.313-19.065 44.607-23.168 11.84-1.999 44.211-2.221 58.542-.402 24.871 3.158 44.328 11.062 56.264 22.858 6.195 6.122 8.287 9.358 14.892 23.041.085.177 12.074-3.617 26.641-8.433l26.485-8.755-1.428-4.067c-13.858-39.451-54.209-64.695-114.354-71.539-9.887-1.125-49.161-2.116-57-1.438m787.5.001c-26.189 2.641-37.755 4.841-55.093 10.48-41.874 13.618-71.408 41.689-85.209 80.986-14.494 41.27-10.824 96.226 8.951 134.041 22.163 42.38 64.3 68.537 120.763 74.965 15.455 1.76 52.339.698 67.588-1.945 50.366-8.731 85.019-30.625 103.081-65.128l3.389-6.472-3.235-1.152c-50.504-17.977-49.142-17.561-50.735-15.51-8.534 10.987-11.461 14.157-17.731 19.201-3.993 3.212-10.149 7.456-13.681 9.431-30.309 16.95-77.561 18.821-112.108 4.439-17.094-7.116-34.68-21.997-43.459-36.776-9.747-16.406-13.444-31.264-13.475-54.151-.036-27.244 5.482-47.035 17.985-64.5 18.473-25.803 50.661-39.508 92.77-39.497 40.355.01 72.637 14.654 88.321 40.064 2.014 3.263 3.782 5.933 3.928 5.933.637 0 49.869-17.085 50.207-17.424.208-.207-.836-2.784-2.319-5.727-19.322-38.33-55.88-61.933-107.438-69.365-10.205-1.471-44.441-2.705-52.5-1.893m666.908.367c-59.712 5.401-95.093 26.2-106.386 62.542-3.011 9.69-3.784 27.347-1.642 37.5.87 4.125 3.463 11.325 5.762 16 3.421 6.958 5.834 10.133 13.296 17.5 15.761 15.558 36.438 25.2 67.469 31.462 5.276 1.065 29.393 4.66 53.593 7.989 48.735 6.704 61.122 9.256 73.152 15.071 17.879 8.642 24.36 22.112 17.323 36.003-4.122 8.136-17.009 16.962-32.017 21.927-28.894 9.56-78.885 8.635-108.281-2.002-18.631-6.741-34.866-19.728-43.787-35.026l-4.418-7.575-26.486 8.334c-14.567 4.584-26.794 8.443-27.17 8.576-1.468.518 5.235 15.095 10.761 23.4 19.984 30.034 55.443 49.174 105.423 56.905 16.154 2.499 58.836 3.086 76.369 1.051 49.494-5.746 82.921-22.849 98.921-50.615 1.426-2.475 4.071-8.775 5.878-14 3.198-9.245 3.286-9.942 3.287-26 0-15.364-.19-17.066-2.76-24.715-9.714-28.913-37.532-47.581-85.195-57.173-5.5-1.107-31.15-5.188-57-9.068-51.125-7.675-60.273-9.549-71.273-14.597-13.36-6.132-17.214-10.916-17.222-21.381-.018-23.021 27.162-35.516 76.995-35.395 29.73.072 48.743 3.337 65.5 11.248 14.959 7.063 24.019 15.692 30.684 29.225 1.721 3.496 3.2 6.459 3.285 6.585s11.94-3.601 26.343-8.281c19.53-6.347 26.188-8.91 26.188-10.082 0-.864-1.791-5.392-3.979-10.062-16.668-35.568-52.599-56.779-108.092-63.808-14.532-1.841-51.44-2.721-64.521-1.538M1310 372.056c-47.445 2.947-78.008 22.107-88.633 55.565-1.302 4.101-2.367 7.888-2.367 8.417 0 .59 9.615.962 24.875.962h24.875l.57-2.85c1.492-7.458 12.103-16.656 23.151-20.068 19.936-6.158 54.976-4.83 70.029 2.653 10.236 5.088 13.5 10.342 13.5 21.725V446l-4.25.006c-2.338.003-12.125.691-21.75 1.53-85.558 7.452-129.442 27.725-140.624 64.964-2.688 8.95-2.424 25.898.537 34.5 4.358 12.661 10.931 21.076 22.513 28.822 14.709 9.838 33.195 14.646 56.074 14.585 24.992-.068 47.128-5.808 73.021-18.934l14.409-7.305.285 9.666.285 9.666 23.785.268 23.784.268-.308-78.768c-.338-86.429-.088-82.727-6.494-96.097-3.808-7.947-15.78-19.731-24.767-24.379-13.54-7.001-31.109-11.348-49.764-12.314-5.63-.291-12.711-.666-15.736-.833s-10.675.018-17 .411m243.569.118c-22.23 1.659-42.176 10.309-58.39 25.321-3.27 3.028-6.224 5.505-6.563 5.505s-.616-5.633-.616-12.518v-12.519l-23.25.269-23.25.268-.255 102.75-.254 102.75H1489V441.857l8.272-8.272c14.576-14.576 31-20.751 55.228-20.765 9.437-.006 13.421.442 18.653 2.097 11.416 3.61 19.391 12.645 23.532 26.658 1.567 5.303 1.807 13.067 2.283 73.925l.532 68 23.791.268 23.791.268-.345-76.268c-.342-75.416-.371-76.355-2.58-84.076-4.277-14.949-8.949-23.289-18.034-32.192-15.392-15.083-39.381-21.654-70.554-19.326m518.269-.118c-12.369.888-19.052 2.106-30.838 5.618-39.081 11.648-65.226 43.338-71.031 86.095-1.663 12.252-.713 35.833 1.906 47.295 9.697 42.442 38.306 68.367 85.625 77.594 12.361 2.411 40.438 2.4 53-.021 57.758-11.128 88.492-48.163 88.492-106.637 0-34.111-10.637-61.115-32.125-81.557-7.771-7.393-13.323-11.245-23.543-16.331-12.962-6.452-28.491-10.599-43.498-11.617a5345 5345 0 0 1-12.826-.885c-2.475-.176-9.298.025-15.162.446m249.662.077c-12.007.878-20.109 3.074-31.345 8.495-7.362 3.552-11.074 6.172-17.5 12.347-4.485 4.311-9.28 9.668-10.655 11.905s-2.838 4.078-3.25 4.093-.75-6.948-.75-15.473V378h-47v206h46.84l.408-61.25c.384-57.745.522-61.629 2.41-67.873 5.214-17.24 16.878-27.904 35.395-32.36 9.51-2.288 27.772-2.894 38.224-1.269 4.827.751 8.99 1.152 9.25.892s.473-11.437.473-24.838c0-18.614-.295-24.458-1.25-24.762-2.664-.845-12.648-1.037-21.25-.407m450-.091c-38.644 2.308-66.344 15.48-81.116 38.571-3.323 5.195-8.154 16.889-9.765 23.637l-.657 2.75 24.769-.004 24.769-.003 1.93-4.694c2.727-6.628 7.531-11.513 14.883-15.132 10.361-5.101 18.728-6.486 39.187-6.486 24.318 0 36.226 2.75 44.904 10.369 5.19 4.557 6.728 8.11 7.333 16.949l.528 7.692-11.883.694c-18.2 1.063-39.316 3.382-55.882 6.137-67.798 11.274-101.537 36.307-101.724 75.478-.15 31.302 18.721 51.765 55.543 60.229 12.216 2.808 35.784 2.972 49.681.346 15.134-2.86 32.837-9.079 48.79-17.139 8.09-4.089 14.823-7.434 14.96-7.435s.25 4.507.25 10.017v10.018l23.75-.268 23.75-.268V508c0-69.748-.14-76.11-1.84-83.5-6.219-27.038-24.12-42.288-57.66-49.121-6.325-1.288-16.225-2.588-22-2.889a2136 2136 0 0 1-15.5-.855c-2.75-.17-10.4.013-17 .407m202.167 6.625c-1.024 1.024-.734 126.161.326 140.333 2.678 35.828 17.285 57.388 45.007 66.427 12.978 4.231 18.692 5.026 35.5 4.936 29.1-.156 47.977-6.941 68.5-24.62l6.5-5.599.5 11.678.5 11.678h47v-205l-23.75-.268-23.75-.268v142.362l-8.84 8.731c-9.905 9.783-19.89 15.459-32.66 18.567-10.014 2.437-32.974 2.503-40.684.117-10.927-3.381-18.954-11.973-22.791-24.397-3.345-10.827-4.023-25.434-4.024-86.594L3021 378h-23.333c-12.834 0-23.634.3-24 .667M2077 412.688c-30.095 2.272-51.185 19.619-57.522 47.312-2.32 10.142-2.324 30.832-.007 41 .94 4.125 3.536 11.325 5.768 16 7.084 14.838 20.764 25.933 37.761 30.624 9.145 2.524 32.855 2.524 42 0 16.997-4.691 30.677-15.786 37.761-30.624 5.744-12.029 7.493-20.697 7.466-37-.036-22.156-5.196-36.869-17.227-49.118-12.784-13.015-33.867-19.865-56-18.194m1226.273.352c-17.065 1.774-31.931 8.619-43.327 19.949-13.194 13.12-18.946 27.846-18.946 48.511 0 20.656 5.747 35.375 18.946 48.526 12.159 12.115 26.861 18.371 46.13 19.63 23.072 1.506 42.492-5.172 65.676-22.586l8.748-6.57.262-39.953.261-39.953-2.761-2.311c-6.899-5.773-23.49-16.191-30.284-19.016-12.651-5.262-30.317-7.722-44.705-6.227M1357.5 481.662c-51.684 6.234-77.906 13.428-89.475 24.544-5.997 5.764-7.976 10.671-8.003 19.848-.061 20.833 15.395 30.052 45.238 26.983 20.236-2.082 38.928-8.165 59.49-19.361l11.25-6.126V481l-7.75.15c-4.263.082-9.1.313-10.75.512m1460.5.029c-12.194 1.292-28.479 3.796-41.08 6.317-39.795 7.962-54.352 17.4-55.695 36.108-1.553 21.644 14.692 32.095 45.019 28.963 22.51-2.325 42.468-9.155 65.006-22.246l6.75-3.921V481l-8.25.16c-4.537.088-9.825.327-11.75.531m-2508 9.957c-41.9 3.922-78.185 16.698-112.5 39.611-50.094 33.449-87.235 84.439-100.967 138.612-13.435 53-4.659 104.702 24.295 143.129 23.329 30.961 55.981 50.884 96.793 59.057 15.392 3.082 45.253 3.799 61.879 1.486 53.772-7.482 101.458-32.056 141.042-72.683 29.403-30.178 48.708-63.032 58.909-100.253 5.379-19.626 6.978-31.595 6.958-52.107-.027-28.534-4.424-47.837-16.4-72-8.376-16.899-16.314-27.687-30.235-41.096-21.128-20.349-45.236-32.984-75.853-39.751-17.464-3.861-38.652-5.435-53.921-4.005m8.107 29.423c-35.405 4.003-69.66 18.503-99.107 41.951-9.608 7.65-26.279 24.491-33.141 33.478-17.915 23.462-30.514 51.144-35.502 78-2.561 13.793-2.535 41.456.051 53.5 5.633 26.234 17.294 47.125 36.281 65 47.02 44.267 125.609 45.587 190.811 3.205 41.617-27.051 72.222-69.272 82.984-114.477 16.609-69.767-15.909-132.605-79.884-154.364-16.636-5.658-43.858-8.399-62.493-6.293m-5.433 12.405c-62.829 8.999-120.304 56.406-141.09 116.376-6.174 17.813-7.944 28.343-7.927 47.148.016 17.517 1.065 24.493 5.866 39 5.451 16.472 13.231 28.856 26.423 42.066 16.775 16.795 34.591 26.172 60.054 31.607 11.96 2.553 38.715 2.533 52.5-.038C370.983 797.979 425.227 750.818 444.954 691c8.829-26.772 9.342-57.146 1.378-81.5-12.877-39.379-43.765-66.065-86.832-75.021-10.94-2.274-34.434-2.778-46.826-1.003M331 553.605c-34.883 4.182-64.306 19.077-89.009 45.058-32.911 34.615-45.008 82.364-30.579 120.699 4.331 11.506 10.31 20.545 19.996 30.229 13.263 13.261 27.304 20.874 46.092 24.992 12.108 2.653 34.947 2.395 48-.543 56.643-12.749 102.357-60.619 109.59-114.759 1.511-11.307.615-28.495-2.02-38.781-8.411-32.824-35.1-57.869-69.139-64.883-7.774-1.602-26.705-2.758-32.931-2.012m276.001 16.522c-34.314 3.971-62.704 20.788-80.912 47.927-11.41 17.006-17.004 35.231-17.786 57.946-.557 16.191.8 27.231 5.226 42.504C530.692 777.729 583.295 825.347 645 837.515c20.543 4.051 46.305 2.819 65.156-3.115 39.451-12.419 66.536-42.701 74.534-83.329 2.463-12.514 2.206-34.539-.558-47.719-4.506-21.486-13.917-42.937-26.918-61.352-8.595-12.176-29.013-32.598-41.214-41.224-33.177-23.456-73.406-34.768-108.999-30.649m-7.501 20.59c-6.992.973-19.503 4.686-26.174 7.768-24.428 11.287-42.414 33.865-47.808 60.015-2.1 10.183-2.135 29.349-.073 39.986 4.843 24.974 17.079 47.158 36.995 67.074 24.714 24.715 54.173 38.373 86.56 40.133 61.145 3.324 104.292-43.121 95.928-103.259-7.44-53.486-55.075-101.253-110.638-110.943-7.842-1.367-27.397-1.802-34.79-.774m-1 8.697c-31.845 6.247-53.989 25.946-63.088 56.123-3.689 12.235-3.958 32.321-.613 45.77 10.692 42.987 45.326 78.028 89.201 90.246 7.455 2.077 12.571 2.759 23.768 3.173 15.064.556 21.681-.221 33.232-3.902 49.131-15.659 68.594-71.447 42.947-123.106-16.191-32.615-46.16-56.878-81.947-66.347-11.888-3.146-32.676-4.081-43.5-1.957m-3.606 15.022c-13.266 2.781-27.349 10.691-35.386 19.874-5.792 6.618-12.04 18.604-13.973 26.804-.828 3.512-1.509 10.886-1.513 16.386-.03 38.764 28.863 75.558 69.978 89.111 7.929 2.614 9.609 2.802 25 2.799 15.291-.004 17.038-.197 23.835-2.637 47.46-17.031 57.378-74.326 20.474-118.273-12.336-14.69-33.021-27.945-50.809-32.557-10.348-2.683-28.525-3.412-37.606-1.507M2167 697.674v21.675l-2.264-2.127c-5.13-4.82-15.365-7.064-24.023-5.266-15.552 3.228-25.551 18.517-24.496 37.453.599 10.754 3.422 17.146 10.379 23.505 6.373 5.824 12.377 8.094 21.332 8.064 7.346-.025 13.784-2.387 18.322-6.724l2.75-2.628V780h19V676h-21zm413-.123v21.551l-3.307-2.522c-4.331-3.304-14.807-5.973-20.421-5.204-21.661 2.969-33.783 27.146-25.163 50.186 4.293 11.474 14.135 18.493 26.971 19.237 9.039.523 13.062-.6 19.346-5.398l4.574-3.493V780h19V676h-21zm742 0v21.551l-3.307-2.522c-4.331-3.304-14.807-5.973-20.421-5.204-21.636 2.966-33.733 27.118-25.146 50.203 4.257 11.443 14.121 18.477 26.954 19.22 9.039.523 13.062-.6 19.346-5.398l4.574-3.493V780h19V676h-21zm-1613.5-16.902c-12.328 2.567-20.862 6.689-28.182 13.612-10.106 9.557-14.695 21.013-14.719 36.739-.038 25.342 14.294 43.992 38.13 49.617 5.163 1.218 9.74 1.466 19.271 1.044 13.191-.585 19.537-1.916 29.75-6.24l6.25-2.646V722h-39v20h18v7.378c0 4.687-.456 7.752-1.25 8.405-3.035 2.496-13.163 4.45-20.779 4.009-17.997-1.042-28.976-14.224-27.751-33.317.758-11.815 6.526-20.695 16.637-25.614 6.623-3.223 19.559-3.235 26.631-.026 2.743 1.244 6.049 3.253 7.347 4.464l2.36 2.201 7.372-8c4.054-4.4 7.245-8.45 7.091-9-.523-1.864-9.282-7.108-14.734-8.821-10.036-3.154-25.079-4.56-32.424-3.03m913.952.709c-7.916 3.572-9.174 14.332-2.346 20.078 6.457 5.433 16.451 2.111 18.974-6.308 2.819-9.41-7.447-17.912-16.628-13.77m102.048-.455c-8.841 3.883-9.794 17.308-1.533 21.58 9.049 4.679 19.035-1.973 17.717-11.802-.993-7.401-9.666-12.641-16.184-9.778m368.952.455c-7.916 3.572-9.174 14.332-2.346 20.078 6.457 5.433 16.451 2.111 18.974-6.308 2.819-9.41-7.447-17.912-16.628-13.77M2326 731.534v48.534l10.75-.284 10.75-.284.311-36 .31-36 11.977 36.25 11.976 36.25 8.213-.005 8.213-.004 12.5-36.568 12.5-36.568.262 36.606.263 36.606 10.737-.283 10.738-.284.26-48.25.259-48.25h-32.875l-1.922 5.25c-1.058 2.888-5.881 16.5-10.719 30.25s-9.082 25.329-9.431 25.731-5.544-13.211-11.547-30.25L2358.612 683H2326zm623-.034V780h21v-37.778l14.25-.463c16.3-.529 22.486-2.129 28.658-7.412 6.167-5.279 8.551-11.216 8.573-21.347.024-10.735-2.04-16.417-7.934-21.85-7.57-6.978-13.489-8.15-41.152-8.15H2949zm21-18.869v11.631l10.25-.465c14.815-.671 18.75-3.143 18.75-11.777 0-7.767-6.099-11.005-20.75-11.014L2970 701zm-1162.079-.264c-4.793 1.714-7.552 3.744-10.48 7.713l-2.441 3.309V713h-21v67h20.819l.341-19.75c.304-17.678.553-20.117 2.374-23.25 3.083-5.305 7.536-7.167 16.216-6.783l7.25.322v-9.163c0-7.432-.299-9.277-1.582-9.769-2.515-.965-7.614-.628-11.497.76m134.411.428c-2.842 1.013-6.779 3.071-8.75 4.574l-3.582 2.733V713h-20v98h21v-38.207l3.473 3.049c4.334 3.805 9.064 5.151 18.027 5.13 15.222-.035 25.928-9.994 29.51-27.451 2.582-12.581-.627-24.287-8.936-32.595-8.582-8.582-20.577-11.755-30.742-8.131m78.668-.697c-6.688 1.306-16.393 6.447-20.063 10.627-1.779 2.026-4.405 6.179-5.836 9.229-2.198 4.687-2.601 6.941-2.601 14.546 0 7.648.398 9.849 2.651 14.655 3.272 6.979 9.249 12.912 16.689 16.566 5.193 2.55 6.609 2.779 17.16 2.779 10.373 0 12.058-.262 17.196-2.67 6.946-3.256 13.517-9.637 16.816-16.33 2.119-4.298 2.467-6.405 2.476-15 .01-8.155-.387-10.862-2.149-14.676-4.592-9.936-14.225-17.199-26.138-19.708-6.031-1.27-9.769-1.274-16.201-.018m210.176-.089c-6.022 1.27-14.092 5.217-17.796 8.704-16.352 15.393-14.033 42.864 4.62 54.732 9.527 6.062 24.804 7.439 35.178 3.172 6.219-2.558 13.822-8.069 13.822-10.02 0-1.226-12.25-10.597-13.853-10.597-.46 0-1.693.946-2.74 2.102-7.121 7.87-20.601 6.234-25.564-3.102l-1.861-3.5 24.149-.268 24.149-.268-.536-8.232c-.967-14.876-6.78-25.156-17.068-30.19-5.952-2.912-15.568-3.994-22.5-2.533m248 .005c-17.587 3.689-28.386 16.536-28.569 33.986-.115 11.058 2.279 17.064 9.804 24.588 4.999 4.998 7.306 6.492 12.888 8.348 9.445 3.139 21.78 2.687 29.701-1.09 5.744-2.738 12.393-8.231 11.828-9.772-.417-1.137-12.549-10.074-13.676-10.074-.463 0-1.698.946-2.745 2.102-7.113 7.861-20.988 6.172-25.654-3.122l-1.747-3.48 24.144-.268 24.145-.268-.584-8.276c-1.059-14.999-6.794-25.161-16.987-30.095-5.93-2.871-15.783-3.998-22.548-2.579m200-.005c-23.677 4.993-35.659 29.475-24.806 50.688 3.288 6.427 8.852 11.602 16.13 15.001 5.433 2.537 7.04 2.802 17 2.798 9.983-.003 11.468-.25 16.063-2.672 8.728-4.6 8.755-4.946.99-12.771l-6.784-6.836-3.634 2.483c-6.398 4.371-15.124 2.214-20.573-5.085-2.988-4.002-2.879-13.779.21-18.759 4.329-6.98 15.25-9.233 21.06-4.344l2.985 2.511 6.58-7.209 6.58-7.21-2.153-2.292c-4.77-5.076-20.053-8.326-29.648-6.303m106.631.574c-2.582.795-6.294 2.954-8.25 4.799l-3.557 3.354V713h-20v67h21v-20.55c0-21.964.489-24.578 5.217-27.889 2.535-1.776 8.973-2.065 11.838-.531 4.359 2.332 4.945 5.641 4.945 27.92V780h21.149l-.324-25.75c-.298-23.59-.5-26.128-2.408-30.25-4.986-10.77-16.848-15.344-29.61-11.417m66.444-.13c-6.471 1.472-15.093 5.61-17.708 8.499-1.358 1.501-.99 2.162 3.878 6.97l5.379 5.312 4.824-3.319c8.707-5.991 20.212-5.001 23.859 2.052.834 1.614 1.517 3.338 1.517 3.831 0 .494-4.613 1.181-10.25 1.527-16.664 1.023-27.435 5.214-31.913 12.416-1.875 3.016-2.337 5.158-2.337 10.832 0 5.999.407 7.689 2.683 11.127 7.468 11.285 29.936 12.828 39.321 2.701l2.496-2.693V780h19v-22.395c0-19.447-.259-23.233-1.968-28.765-2.336-7.565-7.254-12.951-13.995-15.328-6.426-2.266-17.414-2.735-24.786-1.059m213.807-.285c-4.13 1.186-7.547 3.751-10.713 8.042l-2.345 3.179V713h-21v67h20.819l.341-19.75c.304-17.678.553-20.117 2.374-23.25 3.083-5.305 7.536-7.167 16.216-6.783l7.25.322v-9.163c0-7.432-.299-9.277-1.582-9.769-2.224-.854-7.306-.602-11.36.561m154.452-.056c-5.671 1.153-16.619 6.11-18.499 8.375-1.049 1.263-.482 2.417 3.444 7.012 4.953 5.797 6.477 6.493 8.606 3.928 4.059-4.891 15.096-6.949 20.972-3.91 2.721 1.407 5.967 5.995 5.967 8.433 0 .609-2.415 1.058-5.75 1.07-14.596.05-27.84 3.803-33.365 9.453-9.971 10.198-6.674 26.461 6.615 32.627 8.769 4.069 23.657 1.834 29.994-4.503l2.506-2.506V780h19.154l-.327-24.75c-.299-22.628-.507-25.136-2.422-29.25-2.784-5.978-7.662-10.558-13.299-12.484-5.929-2.027-17.226-2.699-23.596-1.404m158.892.31c-5.932 1.352-13.879 4.943-17.871 8.074-1.906 1.496-1.792 1.721 3.598 7.111l5.566 5.567 4.668-3.291c3.811-2.686 5.831-3.364 10.997-3.693 5.923-.377 6.554-.204 9.868 2.705 1.946 1.709 3.742 4.168 3.99 5.465.443 2.318.285 2.367-9.634 2.98-17.09 1.058-25.893 4.266-31.355 11.427-2.461 3.226-2.729 4.385-2.729 11.812 0 7.692.201 8.484 3.053 12.008 4.31 5.324 9.625 7.798 17.748 8.259 8.717.494 15.112-1.321 19.903-5.65l3.796-3.429V780h19.208l-.426-23.75c-.384-21.441-.638-24.291-2.607-29.316-2.563-6.54-5.924-10.052-12.33-12.885-6.108-2.701-17.529-3.431-25.443-1.627M1830 735.79c0 25.132 1.013 31.916 5.676 38.03 7.209 9.452 27.305 9.778 35.828.581l2.496-2.693V780h20v-67h-21v20.852c0 20.057-.087 20.982-2.284 24.25-4.398 6.544-14.648 6.473-17.964-.124-1.497-2.977-1.749-6.468-1.75-24.228L1851 713h-21zm787 10.71V780h21v-67h-21zm102 .035v33.535l10.25-.285 10.25-.285.263-33.25.264-33.25H2719zm369-.035V780h21v-67h-21zm29-32.702c0 .439 6.042 15.402 13.426 33.25l13.426 32.452 10.982.282 10.983.282 12.549-31.782c6.902-17.48 12.842-32.57 13.199-33.532.592-1.597-.269-1.75-9.825-1.75h-10.474l-7.276 21.25c-4.002 11.688-7.598 21.613-7.991 22.058-.393.444-3.089-5.631-5.992-13.5-2.903-7.87-6.607-17.795-8.23-22.058l-2.952-7.75h-10.913c-6.001 0-10.912.359-10.912.798m-887.81 15.228c-2.689 1.639-6.19 6.979-6.19 9.442 0 .293 6.075.532 13.5.532 11.526 0 13.5-.227 13.5-1.55 0-2.586-2.749-7.055-5.414-8.802-3.54-2.319-11.284-2.13-15.396.378m248 0c-2.689 1.639-6.19 6.979-6.19 9.442 0 .293 6.075.532 13.5.532 8.613 0 13.5-.374 13.5-1.032 0-2.563-2.963-7.713-5.328-9.264-3.627-2.376-11.32-2.216-15.482.322m-539.949 2.969c-5.043 3.075-7.233 7.494-7.237 14.607-.003 4.684.524 6.892 2.266 9.5 4.487 6.717 13.333 8.721 21.354 4.838 4.996-2.418 8.376-8.288 8.376-14.544 0-5.553-3.718-12.339-7.984-14.572-4.716-2.468-12.578-2.388-16.775.171m82.758.255c-6.872 4.691-9.054 14.802-4.936 22.874 2.684 5.26 9.051 8.312 15.959 7.648 8.898-.855 13.981-7.01 13.974-16.923-.007-9.921-6.019-15.839-16.098-15.845-4.171-.003-6.445.571-8.899 2.246m124.242-.255c-4.832 2.946-7.233 7.541-7.237 13.854-.007 9.913 5.076 16.068 13.974 16.923 6.908.664 13.275-2.388 15.959-7.648 4.118-8.072 1.936-18.183-4.936-22.874-4.375-2.986-13.077-3.111-17.76-.255m413.015-.35c-5.056 2.492-7.743 7.704-7.75 15.032-.006 6.638 1.548 9.781 6.764 13.675 3.749 2.8 12.231 3.285 16.659.953 11.546-6.079 11.469-23.865-.129-29.9-3.591-1.868-11.516-1.746-15.544.24m742 0c-5.056 2.492-7.743 7.704-7.75 15.032-.006 6.675 1.545 9.779 6.879 13.761 3.943 2.944 14.317 2.92 18.292-.043 4.672-3.482 6.807-8.152 6.718-14.693-.088-6.484-1.843-9.68-7.385-13.452-4.005-2.726-11.876-3.01-16.754-.605m-442.637 20.389c-10.559 3.162-9.806 13.665 1.054 14.709 9.013.866 16.314-4.723 16.323-12.493L2874 751l-7.25.086c-3.988.047-8.546.474-10.131.948m366.475.272c-7.364 2.581-9.142 10.067-3.129 13.176 8.965 4.636 21.035-1.456 21.035-10.617V751l-7.25.056c-3.988.031-8.783.594-10.656 1.25m159.419.201c-4.667 1.662-6.513 3.82-6.513 7.612 0 6.021 8.477 8.674 16.92 5.296 4.653-1.861 6.788-4.735 7.685-10.345l.651-4.07-7.378.044c-4.058.024-9.172.683-11.365 1.463"/></svg>