<?xml version="1.0" standalone="no"?>
<!DOCTYPE svg PUBLIC "-//W3C//DTD SVG 1.1//EN" "http://www.w3.org/Graphics/SVG/1.1/DTD/svg11.dtd">
<svg xmlns="http://www.w3.org/2000/svg" width="491" height="99" fill="white" viewBox="0 0 491 99"><path fill-rule="evenodd" d="M111.5 17.443c-5.571 2.054-8.5 5.723-8.5 10.648 0 7.06 3.52 9.866 15.5 12.355 8.333 1.731 10.841 4.679 7.494 8.808-2.601 3.208-12.87 3.197-18.321-.02-2.083-1.229-3.987-2.234-4.23-2.234S103 48.559 103 50.465c0 4.054.979 4.719 9.527 6.475 5.074 1.043 6.96.995 11.922-.301 7.16-1.869 9.529-4.057 10.255-9.471.975-7.264-1.073-9.004-15.501-13.172-5.793-1.674-7.538-2.637-8.464-4.67-1.045-2.293-.864-2.821 1.729-5.052 2.506-2.156 3.579-2.421 7.964-1.966 2.787.289 6.081.84 7.318 1.225 1.933.602 2.25.337 2.25-1.881 0-1.594-.798-3.009-2.086-3.698-3.464-1.854-12.046-2.121-16.414-.511M16 28.5V40h24V17H16zm44 0V40h24V17H60zm398.471-10.286c-.284.741-.394 9.884-.244 20.317L458.5 57.5l11.673.281c10.965.264 11.711.159 12.314-1.741 1.086-3.42-.298-4.04-9.022-4.04h-8.418l-.273-17.25-.274-17.25-2.756-.317c-1.635-.188-2.966.231-3.273 1.031M190 41.283v16.85l2.75-.317 2.75-.316V24.675l-2.75-.121-2.75-.12zm18.025-15.531c-2.289 1.151-3.929 2.956-4.806 5.287-2.554 6.796.818 10.284 13.58 14.046 3.76 1.109 4.262 1.588 4 3.823-.55 4.697-4.895 5.084-16.049 1.432-1.365-.447-1.75-.001-1.75 2.03 0 7.231 20.332 7.415 23.845.216 1.776-3.638.699-9.186-2.142-11.037-1.212-.789-4.453-1.964-7.203-2.609-6.947-1.632-7.955-2.269-8.313-5.256-.251-2.093.196-2.742 2.24-3.255 2.409-.605 8.257-.275 11.573.652 1.014.283 1.599-.433 1.805-2.214.253-2.181-.245-2.825-2.899-3.75-4.627-1.613-9.892-1.372-13.881.635m31.427-.407c-5.951 2.712-8.467 10.521-4.535 14.079 1.054.954 5.213 2.952 9.242 4.439 7.77 2.868 9.573 5.109 6.179 7.681-2.414 1.829-6.549 1.813-10.992-.044-4.825-2.016-5.346-1.916-5.346 1.025 0 2.936 2.951 4.464 10 5.179 8.974.91 15.847-4.378 14.565-11.207-.772-4.119-3.14-5.901-10.065-7.576-2.75-.665-5.787-1.61-6.75-2.1-2.018-1.028-2.297-3.874-.55-5.621 1.472-1.472 9.222-1.58 11.866-.165 1.711.916 1.934.692 1.934-1.941 0-1.637-.462-3.261-1.026-3.61-2.267-1.401-11.557-1.49-14.522-.139m161.017-.283c-4.134 1.203-9.083 6.26-9.843 10.059-2.026 10.127.505 17.121 7.45 20.588C405.642 59.486 416 58.153 416 53.402c0-2.72-.714-2.867-6.082-1.259C402.376 54.402 397 49.609 397 40.626c0-3.392.647-5.242 2.68-7.658 2.502-2.974 3.019-3.154 7.75-2.707 2.789.263 5.858.81 6.82 1.215 1.446.61 1.75.207 1.75-2.322 0-2.684-.461-3.188-3.75-4.101-4.38-1.217-7.576-1.214-11.781.009m-265.152 1.321c.291.76 1.441 4.247 2.554 7.75 9.019 28.381 12.004 30.513 17.629 12.592 1.65-5.257 3.28-9.839 3.623-10.181.343-.343 2.406 4.232 4.584 10.166 3.165 8.621 4.383 10.852 6.06 11.101 2.63.389 2.912-.147 9.573-18.194L184.735 25h-3.259c-3.674 0-4.401 1.277-8.414 14.778-1.19 4.002-2.484 7.079-2.875 6.837-.392-.242-2.282-5.192-4.2-11-3.246-9.829-3.669-10.561-6.116-10.587-2.452-.026-2.886.709-6.44 10.913-2.097 6.018-4.069 10.783-4.384 10.588s-2.142-5.106-4.06-10.914L141.5 25.056l-3.357-.028c-2.453-.021-3.214.344-2.826 1.355m141.908 14.798c.262 15.561.368 16.319 2.275 16.319 1.825 0 2.044-.833 2.5-9.5l.5-9.5 2.6 4c1.429 2.2 3.354 5.462 4.275 7.25 2.114 4.098 5.242 4.323 6.949.5.675-1.513 2.341-4.775 3.702-7.25l2.474-4.5.5 9.5c.491 9.333.544 9.5 3 9.5h2.5l.275-16.25.275-16.25h-2.847c-2.594 0-3.271.844-7.625 9.5-2.628 5.225-5.111 9.5-5.518 9.5-.406 0-1.257-1.013-1.891-2.25-6.029-11.78-9.178-16.267-11.629-16.569l-2.59-.319zm38 .069.275 16.25h11c10.582 0 11.012-.084 11.314-2.207.298-2.094-.087-2.222-7.5-2.5L322.5 52.5v-9l7.25-.294c6.952-.282 7.25-.394 7.25-2.75 0-2.39-.202-2.456-7.5-2.456H322v-8h8c7.867 0 8-.042 8-2.5V25h-23.05zm28 0 .275 16.25 8-.047c10.621-.062 15.422-1.57 18.232-5.725 4.901-7.245 4.227-16.585-1.642-22.754L364.31 25h-21.36zm35 0 .275 16.25h6l.275-16.25.275-16.25h-7.1zm49.733-3.662c-3.277 6.923-5.961 12.886-5.964 13.25s-.662 1.92-1.464 3.457c-1.246 2.389-1.254 2.874-.053 3.335 2.8 1.074 5.055-.231 6.799-3.935l1.779-3.778 7.677.291 7.677.292 1.972 3.75c1.568 2.983 2.549 3.75 4.795 3.75 1.553 0 2.824-.432 2.824-.96s-3.262-7.946-7.25-16.484c-6.806-14.571-7.421-15.524-10.042-15.539-2.596-.016-3.209.864-8.75 12.571M350 41v11h4.453c8.189 0 12.002-3.494 12.002-11 0-7.474-4.04-11-12.604-11H350zm84.5-3.28-2.333 5.497c-.184.43 1.963.783 4.77.783h5.104l-2.021-3.96c-1.111-2.178-2.02-4.653-2.02-5.5 0-2.897-1.499-1.534-3.5 3.18M16.218 71.75 16.5 83.5l11.75.282 11.75.281V60H15.937zM60 72.032v12.031l11.75-.281L83.5 83.5l.282-11.75.281-11.75H60zm138.875-.526c-6.447 3.504-3.169 13.04 4.233 12.312 4.136-.406 5.297-2.957 1.204-2.645-3.921.299-5.312-.781-5.312-4.125 0-3.188 1.904-4.361 5.579-3.439 2.922.734 3.266-1.087.487-2.574-2.45-1.311-2.986-1.27-6.191.471M103 77.5c0 5.111.321 6.5 1.5 6.5 1.021 0 1.507-1.038 1.522-3.25l.022-3.25 1.978 2.5L110 82.5l1.978-2.5 1.978-2.5.022 3.25c.015 2.212.501 3.25 1.522 3.25 1.179 0 1.5-1.389 1.5-6.5 0-7.378-1.779-8.762-4.5-3.5-.853 1.65-1.978 3-2.5 3s-1.647-1.35-2.5-3c-2.721-5.262-4.5-3.878-4.5 3.5m26.409-5.123c-.291.757-.389 3.57-.219 6.25l.31 4.873 4.853.309c3.65.232 4.746-.016 4.423-1-.237-.72-1.633-1.451-3.103-1.625-3.781-.448-3.5-3.184.327-3.184 1.65 0 3-.45 3-1s-1.35-1-3-1q-3 0-3-1.5t3-1.5c1.65 0 3-.45 3-1 0-1.584-8.974-1.231-9.591.377M152 77.5V84h4c4.823 0 8-2.719 8-6.845 0-3.945-2.81-6.155-7.829-6.155H152zm25 0c0 5.111.321 6.5 1.5 6.5s1.5-1.389 1.5-6.5-.321-6.5-1.5-6.5-1.5 1.389-1.5 6.5m46 0c0 5.111.321 6.5 1.5 6.5s1.5-1.389 1.5-6.5-.321-6.5-1.5-6.5-1.5 1.389-1.5 6.5m20.202-.25c.316 6.618 1.952 8.104 2.798 2.539l.5-3.289 3 3.75c4.391 5.489 5.5 4.935 5.5-2.75 0-5.111-.321-6.5-1.5-6.5-1.062 0-1.5 1.076-1.5 3.682v3.681l-3.275-3.681c-4.797-5.392-5.878-4.89-5.523 2.568m27.506-.728c-1.489 3.037-2.708 5.962-2.708 6.5 0 1.556 2.727 1.132 3.362-.522.338-.882 1.838-1.5 3.638-1.5s3.3.618 3.638 1.5c.731 1.903 2.362 1.957 2.362.078 0-2.895-4.53-11.575-6.042-11.577-.876 0-2.71 2.382-4.25 5.521M306 77.5c0 5.111.321 6.5 1.5 6.5.933 0 1.5-.944 1.5-2.5 0-2.115.465-2.5 3.021-2.5 2.243 0 3.312-.637 4.147-2.47 1.649-3.618-.354-5.53-5.79-5.53H306zm27 .083c0 4.82.335 6.473 1.25 6.172.688-.226 1.394-1.389 1.57-2.583.43-2.927 2.596-2.749 3.998.328.627 1.375 1.824 2.5 2.661 2.5 1.812 0 1.874-.471.419-3.191-.821-1.535-.783-2.655.151-4.4 1.85-3.458-.195-5.409-5.671-5.409H333zm31.917-6.17c-.229.228-.263 3.177-.076 6.553.453 8.141 2.553 7.576 2.957-.795.228-4.726-.026-6.171-1.084-6.171-.759 0-1.568.186-1.797.413m22.203 4.837a4105 4105 0 0 0 2.612 6.549c1.092 2.73 3.702.463 6.385-5.549 2.141-4.796 2.457-6.25 1.357-6.25-.788 0-2.407 1.908-3.597 4.241l-2.163 4.24-2.054-4.24c-3.094-6.389-5.159-5.568-2.54 1.009m29.386.738c-2.974 6.221-2.845 8.533.317 5.673 2.286-2.07 6.77-2.165 7.539-.161.707 1.843 2.638 1.987 2.638.196C427 80.383 421.861 71 420.594 71c-.674 0-2.514 2.695-4.088 5.988M442 77.5V84h4c4.855 0 8-2.724 8-6.929 0-4.182-2.356-6.071-7.571-6.071H442zm29.014-.529c-1.658 3.285-3.014 6.21-3.014 6.5 0 1.231 3.112.4 3.638-.971.33-.86 1.823-1.5 3.5-1.5s3.17.64 3.5 1.5c.635 1.654 3.362 2.078 3.362.522C482 80.876 476.501 71 475.306 71c-.702 0-2.634 2.687-4.292 5.971M155 77c0 3.185.367 4 1.8 4 4.056 0 5.72-5.116 2.266-6.965C155.784 72.279 155 72.851 155 77m154-2.57c0 1.021.903 1.57 2.583 1.57 3.133 0 2.79-2.348-.411-2.82-1.443-.212-2.172.208-2.172 1.25m27 .07c0 1.128.702 1.539 2.25 1.32 1.238-.176 2.25-.77 2.25-1.32s-1.012-1.144-2.25-1.32c-1.548-.219-2.25.192-2.25 1.32M445 77c0 3.185.367 4 1.8 4 4.056 0 5.72-5.116 2.266-6.965C445.784 72.279 445 72.851 445 77m-171.362-.5c-.389 1.015.051 1.5 1.362 1.5s1.751-.485 1.362-1.5c-.317-.825-.93-1.5-1.362-1.5s-1.045.675-1.362 1.5m146.001-.806c-1.126 1.126-.685 2.306.861 2.306.825 0 1.5-.423 1.5-.941 0-1.261-1.562-2.164-2.361-1.365M474 76.5c0 .825.661 1.5 1.469 1.5.894 0 1.243-.586.893-1.5-.317-.825-.978-1.5-1.469-1.5s-.893.675-.893 1.5"/></svg>