<?xml version="1.0" standalone="no"?>
<!DOCTYPE svg PUBLIC "-//W3C//DTD SVG 1.1//EN" "http://www.w3.org/Graphics/SVG/1.1/DTD/svg11.dtd">
<svg xmlns="http://www.w3.org/2000/svg" fill="white" width="512" height="442" viewBox="0 0 512 442"><path fill-rule="evenodd" d="M0 221.006v219.998l256.25-.252 256.25-.252.252-220 .252-220-256.502.254L0 1.008zM.491 221c0 121.275.117 170.888.259 110.25.142-60.637.142-159.862 0-220.5C.608 50.113.491 99.725.491 221M3.463 5.248c-.262.689-.36 98.227-.219 216.752L3.5 437.5h505V4.5l-252.281-.252c-201.3-.201-252.376.001-252.756 1M122.5 192.443c-5.696 2.1-8.5 5.704-8.5 10.924 0 6.599 3.33 9.401 13.881 11.682 10.067 2.175 12.675 4.81 9.113 9.205-2.601 3.208-12.87 3.197-18.321-.02-2.083-1.229-3.987-2.234-4.23-2.234s-.443 1.559-.443 3.465c0 4.054.979 4.719 9.527 6.475 5.074 1.043 6.96.995 11.922-.301 7.16-1.869 9.529-4.057 10.255-9.471.975-7.264-1.073-9.004-15.501-13.172-5.793-1.674-7.538-2.637-8.464-4.67-1.045-2.293-.864-2.821 1.729-5.052 2.506-2.156 3.579-2.421 7.964-1.966 2.787.289 6.08.84 7.318 1.225 1.933.602 2.25.337 2.25-1.881 0-1.594-.798-3.009-2.086-3.698-3.464-1.854-12.046-2.121-16.414-.511M27 203.5V215h24v-23H27zm44 0V215h24v-23H71zm398.471-10.286c-.284.741-.394 9.884-.244 20.317l.273 18.969 11.673.281c10.965.264 11.711.159 12.314-1.741 1.086-3.42-.298-4.04-9.022-4.04h-8.418l-.273-17.25-.274-17.25-2.756-.317c-1.635-.188-2.966.231-3.273 1.031m-266.221 6.555c-2.227.366-2.25.536-2.25 16.867v16.497l2.75-.317 2.75-.316.276-15.924c.152-8.758-.073-16.206-.5-16.551s-1.788-.46-3.026-.256m15.775.983c-2.289 1.151-3.929 2.956-4.806 5.287-2.554 6.796.818 10.284 13.58 14.046 3.76 1.109 4.262 1.588 4 3.823-.55 4.697-4.895 5.084-16.049 1.432-1.365-.447-1.75-.001-1.75 2.03 0 3.537 5.577 5.943 12.5 5.392 7.349-.585 10.763-2.561 11.766-6.811 1.66-7.031-2.325-11.171-12.21-12.684-4.533-.694-6.056-1.919-6.056-4.87 0-1.68.717-2.539 2.49-2.984 2.356-.591 8.224-.251 11.51.668 1.014.283 1.599-.433 1.805-2.214.253-2.181-.245-2.825-2.899-3.75-4.627-1.613-9.892-1.372-13.881.635m31.427-.407c-5.951 2.712-8.467 10.521-4.535 14.079 1.054.954 5.216 2.953 9.25 4.442 6.367 2.35 7.333 3.028 7.333 5.146 0 1.765-.767 2.709-2.772 3.415-2.587.91-5.023.518-12.978-2.087-1.37-.449-1.75.001-1.75 2.068 0 1.949.721 2.93 2.75 3.74 11.477 4.587 23.489-.728 21.815-9.651-.772-4.119-3.14-5.901-10.065-7.576-2.75-.665-5.787-1.61-6.75-2.1-2.018-1.028-2.297-3.874-.55-5.621 1.472-1.472 9.222-1.58 11.866-.165 1.711.916 1.934.692 1.934-1.941 0-1.637-.462-3.261-1.026-3.61-2.267-1.401-11.557-1.49-14.522-.139m161.023-.285c-1.664.485-4.534 2.438-6.379 4.341-2.997 3.092-3.4 4.184-3.794 10.279-.563 8.714 1.455 12.874 7.774 16.029 7.566 3.777 17.924 2.444 17.924-2.307 0-2.72-.714-2.867-6.082-1.259-7.542 2.259-12.918-2.534-12.918-11.517 0-3.392.647-5.242 2.68-7.658 2.502-2.974 3.019-3.154 7.75-2.707 2.789.263 5.858.81 6.82 1.215 1.446.61 1.75.207 1.75-2.322 0-2.684-.461-3.188-3.75-4.101-4.378-1.216-7.576-1.214-11.775.007M146 200.374c0 .206.722 2.344 1.605 4.75.882 2.407 1.971 5.726 2.419 7.376s2.101 6.559 3.674 10.909c4.859 13.442 8.192 13.003 12.802-1.684 1.65-5.257 3.28-9.839 3.623-10.181.343-.343 2.406 4.232 4.584 10.166 3.165 8.621 4.383 10.852 6.06 11.101 2.63.389 2.912-.147 9.573-18.194L195.735 200h-3.259c-3.674 0-4.401 1.277-8.414 14.778-1.19 4.002-2.484 7.079-2.875 6.837-.392-.242-2.282-5.192-4.2-11-3.246-9.829-3.669-10.561-6.116-10.587-2.452-.026-2.886.709-6.44 10.913-2.097 6.018-4.069 10.783-4.384 10.588s-2.142-5.106-4.06-10.914c-3.472-10.515-3.501-10.559-6.737-10.587-1.787-.015-3.25.14-3.25.346m142.225 15.807c.262 15.561.368 16.319 2.275 16.319 1.825 0 2.044-.833 2.5-9.5l.5-9.5 2.6 4c1.429 2.2 3.354 5.463 4.275 7.25 2.114 4.098 5.242 4.323 6.949.5.675-1.512 2.341-4.775 3.702-7.25l2.474-4.5.5 9.5c.491 9.333.544 9.5 3 9.5h2.5l.275-16.25.275-16.25h-2.847c-2.594 0-3.271.844-7.625 9.5-2.628 5.225-5.111 9.5-5.518 9.5-.406 0-1.257-1.012-1.891-2.25-6.029-11.78-9.178-16.267-11.629-16.569l-2.59-.319zm38 .069.275 16.25h11c10.582 0 11.012-.084 11.314-2.207.298-2.094-.087-2.222-7.5-2.5l-7.814-.293v-9l7.25-.294c6.952-.282 7.25-.394 7.25-2.75 0-2.39-.202-2.456-7.5-2.456H333v-8h8c7.867 0 8-.042 8-2.5V200h-23.05zm28 0 .275 16.25 8-.047c10.621-.062 15.437-1.572 18.154-5.689 4.903-7.43 4.269-16.658-1.564-22.79L375.31 200h-21.36zm35 0 .275 16.25h6l.275-16.25.275-16.25h-7.1zm49.748-3.612c-3.285 6.951-5.976 12.914-5.979 13.25s-.662 1.87-1.464 3.407c-1.246 2.389-1.254 2.874-.053 3.335 2.8 1.074 5.055-.231 6.799-3.935l1.779-3.778 7.677.291 7.677.292 1.972 3.75c1.568 2.983 2.549 3.75 4.795 3.75 1.553 0 2.824-.432 2.824-.96s-3.262-7.946-7.25-16.484c-6.792-14.542-7.426-15.524-10.027-15.539-2.578-.016-3.204.887-8.75 12.621M361 216v11h4.453c8.189 0 12.002-3.494 12.002-11 0-7.474-4.04-11-12.604-11H361zm84.801-4.224c-3.448 7.561-3.547 7.224 2.112 7.224h5.128l-2.021-3.96c-1.111-2.178-2.02-4.653-2.02-5.5 0-2.643-1.429-1.645-3.199 2.236M27.218 246.75l.282 11.75 11.75.282 11.75.281V235H26.937zm43.782.282v12.031l11.75-.281 11.75-.282.282-11.75.281-11.75H71zm138.75-.46c-1.512.821-2.802 2.265-2.865 3.21-.424 6.33 1.99 9.446 6.987 9.017 1.91-.165 3.662-.872 3.892-1.572.283-.862-.509-1.202-2.452-1.054-3.921.299-5.312-.781-5.312-4.125 0-3.188 1.904-4.361 5.579-3.439 2.922.734 3.266-1.087.487-2.574-2.462-1.318-2.978-1.274-6.316.537M114 252.5c0 5.111.321 6.5 1.5 6.5 1.021 0 1.507-1.038 1.522-3.25l.022-3.25 1.978 2.5 1.978 2.5 1.978-2.5 1.978-2.5.022 3.25c.015 2.212.501 3.25 1.522 3.25 1.179 0 1.5-1.389 1.5-6.5 0-7.378-1.779-8.762-4.5-3.5-.853 1.65-1.978 3-2.5 3s-1.647-1.35-2.5-3c-2.721-5.262-4.5-3.878-4.5 3.5m26.409-5.123c-.291.757-.389 3.57-.219 6.25l.31 4.873 4.853.309c3.65.232 4.746-.016 4.423-1-.237-.72-1.633-1.451-3.103-1.625-3.781-.448-3.5-3.184.327-3.184 1.65 0 3-.45 3-1s-1.35-1-3-1q-3 0-3-1.5t3-1.5c1.65 0 3-.45 3-1 0-1.584-8.974-1.231-9.591.377M163 252.5v6.5h4c4.823 0 8-2.719 8-6.845 0-3.945-2.81-6.155-7.829-6.155H163zm25 0c0 5.111.321 6.5 1.5 6.5s1.5-1.389 1.5-6.5-.321-6.5-1.5-6.5-1.5 1.389-1.5 6.5m46 0c0 5.111.321 6.5 1.5 6.5s1.5-1.389 1.5-6.5-.321-6.5-1.5-6.5-1.5 1.389-1.5 6.5m20.202-.25c.316 6.618 1.952 8.104 2.798 2.539l.5-3.289 3 3.75c4.391 5.489 5.5 4.935 5.5-2.75 0-5.111-.321-6.5-1.5-6.5-1.062 0-1.5 1.076-1.5 3.682v3.681l-3.275-3.681c-4.797-5.392-5.878-4.89-5.523 2.568m27.506-.728c-1.489 3.037-2.708 5.962-2.708 6.5 0 1.556 2.727 1.132 3.362-.522.338-.882 1.838-1.5 3.638-1.5s3.3.618 3.638 1.5c.731 1.903 2.362 1.957 2.362.078 0-2.895-4.53-11.575-6.042-11.577-.876 0-2.71 2.382-4.25 5.521M317 252.5c0 5.111.321 6.5 1.5 6.5.933 0 1.5-.944 1.5-2.5 0-2.115.465-2.5 3.021-2.5 2.243 0 3.312-.637 4.147-2.47 1.649-3.618-.354-5.53-5.79-5.53H317zm27 .083c0 4.82.335 6.473 1.25 6.172.688-.226 1.394-1.389 1.57-2.583.43-2.927 2.596-2.749 3.998.328.627 1.375 1.824 2.5 2.661 2.5 1.812 0 1.874-.471.419-3.191-.821-1.535-.783-2.655.151-4.4 1.85-3.458-.195-5.409-5.671-5.409H344zm32 0c0 4.82.335 6.473 1.25 6.171.774-.256 1.363-2.763 1.548-6.583.242-5.032.012-6.171-1.25-6.171-1.241 0-1.548 1.308-1.548 6.583m22.12-1.333c1.15 2.887 2.325 5.835 2.612 6.549 1.092 2.73 3.702.463 6.385-5.549 2.141-4.796 2.457-6.25 1.357-6.25-.788 0-2.407 1.908-3.597 4.241l-2.163 4.24-2.054-4.24c-3.094-6.389-5.159-5.568-2.54 1.009m29.386.738c-2.974 6.221-2.845 8.533.317 5.673 2.286-2.07 6.77-2.165 7.539-.161.707 1.843 2.638 1.987 2.638.196 0-2.313-5.139-11.696-6.406-11.696-.674 0-2.514 2.695-4.088 5.988M453 252.5v6.5h4c4.855 0 8-2.724 8-6.929 0-4.182-2.356-6.071-7.571-6.071H453zm29.517-1.533c-1.384 2.731-2.517 5.656-2.517 6.5 0 1.97 1.886 1.993 2.638.033.33-.86 1.823-1.5 3.5-1.5s3.17.64 3.5 1.5c.635 1.654 3.362 2.078 3.362.522 0-2.144-5.498-12.022-6.691-12.022-.702 0-2.408 2.235-3.792 4.967M166 252c0 3.185.367 4 1.8 4 4.056 0 5.72-5.116 2.266-6.965-3.282-1.756-4.066-1.184-4.066 2.965m154-2.57c0 1.021.903 1.57 2.583 1.57 3.133 0 2.79-2.348-.411-2.82-1.443-.212-2.172.208-2.172 1.25m27 .07c0 1.128.702 1.539 2.25 1.32 1.238-.176 2.25-.77 2.25-1.32s-1.012-1.144-2.25-1.32c-1.548-.219-2.25.192-2.25 1.32m109 2.5c0 3.185.367 4 1.8 4 4.056 0 5.72-5.116 2.266-6.965-3.282-1.756-4.066-1.184-4.066 2.965m-171.362-.5c-.389 1.015.051 1.5 1.362 1.5s1.751-.485 1.362-1.5c-.317-.825-.93-1.5-1.362-1.5s-1.045.675-1.362 1.5m146.001-.806c-1.126 1.126-.685 2.306.861 2.306.825 0 1.5-.423 1.5-.941 0-1.261-1.562-2.164-2.361-1.365M485 251.5c0 .825.661 1.5 1.469 1.5.894 0 1.243-.586.893-1.5-.317-.825-.978-1.5-1.469-1.5s-.893.675-.893 1.5"/></svg>