<?xml version="1.0" standalone="no"?>
<!DOCTYPE svg PUBLIC "-//W3C//DTD SVG 1.1//EN" "http://www.w3.org/Graphics/SVG/1.1/DTD/svg11.dtd">
<svg xmlns="http://www.w3.org/2000/svg" width="1086" height="336" viewBox="0 0 1086 336"><path fill-rule="evenodd" d="M1 167.5V335h190V0H1zM93.75 8.756 10 9.011V326h172V9.233l-2.25-.366c-1.238-.202-39.937-.252-86-.111M38.661 25.482c-.815.815-2.236 3.627-3.158 6.25-2.26 6.425-8.107 17.662-12.347 23.73-1.908 2.729-4.614 7.679-6.015 11-2.334 5.534-2.579 7.513-2.939 23.717-.596 26.771 2.74 43.405 16.909 84.321 14.058 40.591 13.622 38.951 14.347 53.999.343 7.134.993 11.362 1.906 12.411.762.874 2.073 2.935 2.914 4.579l1.528 2.988.847-4.988c1.333-7.851.84-21.256-1.102-29.989-.979-4.4-4.894-16.725-8.7-27.388-6.069-17-7.649-23.035-12.834-49-6.914-34.625-8.348-46.443-7.033-57.969 1.064-9.332 1.979-11.555 9.548-23.192 3.019-4.642 6.221-10.355 7.115-12.696C40.54 40.915 41.572 39 41.94 39c1.203 0 13.071 23.682 15.626 31.18 2.685 7.88 4.389 20.642 4.417 33.08.018 7.99.04 8.041 5.175 11.971 1.524 1.166 1.429 1.835-1.179 8.269-5.382 13.277-7.353 22.893-7.378 36-.023 12.592.898 18.495 5.075 32.5 2.66 8.921 10.57 28.48 15.469 38.25 2.544 5.072 3.236 5.75 5.869 5.75 1.642 0 2.986-.161 2.986-.359s-2.749-6.609-6.109-14.25c-13.368-30.396-16.477-42.325-15.597-59.839.871-17.308 6.462-34.421 17.987-55.052 21.169-37.896 25.597-56.061 15.821-64.907L98 39.69v6.945c0 12.617-3.66 22.39-18.301 48.865l-7.189 13-.66-8.5c-1.415-18.247-4.893-30.232-13.609-46.895C51.031 39.322 48.547 36 45.449 36c-2.802 0-2.989-.702-.917-3.441q2.954-3.905-.361-6.904c-2.258-2.044-3.597-2.086-5.51-.173m478.652-.39C512.693 26.444 510 30.36 510 35.728c0 3.618-.377 4.558-2 4.982-2.509.656-2.964 7.29-.5 7.29 1.289 0 1.5 3.167 1.5 22.5V93h8V48h9v45h7V63.401c0-31.213-.398-34.295-4.783-37.033-2.804-1.751-7.428-2.292-10.904-1.276M539 58.5c0 18.975.337 34.538.75 34.586.413.047 4.913.159 10 .25l9.25.164v-7.704l-6 .556-6 .556-.125-29.454c-.069-16.2-.237-29.904-.375-30.454s-.306-1.45-.375-2-1.7-1-3.625-1H539zM314 32.93c0 7.463-.133 7.95-2.25 8.25-1.762.251-2.25.97-2.25 3.32s.488 3.069 2.25 3.32l2.25.319V93h8V48h8.685l.687 22.209c.714 23.086.922 24.038 5.118 23.399 1.962-.299 2.016-1.118 2.273-34.457L339.026 25H331v16h-10V25h-7zm49.802-5.539c-23.34 9.599-28.982 39.007-10.755 56.056 7.802 7.298 12.542 9.053 24.453 9.053 9.493 0 10.321-.174 16.326-3.43 11.55-6.262 17.439-15.609 18-28.57.48-11.073-2.075-17.749-9.716-25.39-7.347-7.347-14.205-10.12-24.949-10.086-5.707.017-9.114.621-13.359 2.367m58.698-.862c-2.2.792-4.08 1.448-4.177 1.456s-.884 1.434-1.75 3.169c-3.146 6.306-2.306 9.813 7.308 30.538 6.187 13.337 7.162 17.5 4.842 20.672-1.374 1.88-7.223 3.574-12.473 3.612-3.068.023-3.25.228-3.25 3.669v3.645l6.925-.58c10.29-.863 14.685-3.666 16.983-10.829 1.58-4.926.617-8.426-7.292-26.508-3.639-8.32-6.616-16.238-6.616-17.595 0-3.984 2.771-5.709 8.25-5.137l4.75.495V25l-4.75.044c-2.613.024-6.55.692-8.75 1.485M440 58.863V93h8V80.237l4.25-1.076c10.27-2.601 18.609-11.35 20.779-21.8 3.472-16.727-8.092-30.633-26.718-32.128L440 24.726zM477 59v34h8.322l-.668-30.5-.668-30.5h8.985l.265 30.75.264 30.75h7l.264-30.69.265-30.691 3.735-.309c3.46-.287 3.743-.55 3.836-3.56l.1-3.25H477zM367.324 32.638c-5.885 2.085-13.183 8.865-15.958 14.824-8.374 17.981 5.115 38.888 25.134 38.958 8.531.029 13.581-1.788 19.328-6.956 6.718-6.039 9.55-12.057 9.618-20.436.066-7.999-3.625-16.38-9.26-21.028-7.752-6.394-19.69-8.612-28.862-5.362m151.331.191c-.91 1.006-1.655 3.256-1.655 5 0 3.092.113 3.171 4.5 3.171 4.436 0 4.5-.047 4.5-3.345 0-3.213-2.418-6.655-4.674-6.655-.559 0-1.761.823-2.671 1.829M448 52.375c0 22.744-.241 22.006 6.298 19.274 4.14-1.73 9.144-7.427 10.721-12.207 1.644-4.98.664-13.601-2.043-17.981-2.738-4.43-7.72-8.26-11.81-9.078L448 31.75zm-310.953-3.932c-.956 1.153-.659 2.362 1.473 6 1.923 3.281 2.28 4.557 1.278 4.557-4.255 0-16.215 17.741-20.37 30.216-2.405 7.221-2.777 7.778-4.283 6.416-.907-.821-2.868-1.956-4.357-2.523-2.542-.966-2.655-.893-1.829 1.181.484 1.215 3.167 9.45 5.963 18.299 6.049 19.15 8.043 31.777 8.038 50.911-.004 17.182-1.279 23.398-10.772 52.541-8.295 25.462-8.689 27.129-7.13 30.15 1.399 2.71 4.994 6.809 5.972 6.809.374 0 .953-2.914 1.286-6.476.405-4.34 2.596-11.788 6.642-22.574 9.11-24.29 12.042-37.91 12.042-55.931 0-11.839-2.576-31.059-5.967-44.519-1.524-6.05-2.448-11.225-2.054-11.5s.992-3.425 1.328-7 1.539-9.2 2.672-12.5c2.362-6.875 14.291-29.757 15.771-30.25 1.462-.487 18.757 34.832 22.158 45.25 5.552 17.009 5.788 33.538.689 48.319-1.389 4.025-6.196 14.375-10.684 23C140.038 207.406 135 218.384 135 222.208c0 1.024.764 3.084 1.697 4.577.934 1.493 1.313 2.381.842 1.974-.47-.408-1.459-.24-2.197.372-1.807 1.5-1.709 9.262.258 20.369 1.085 6.129 1.384 11.375.937 16.445-1.158 13.15-2.517 11.466-1.972-2.445.448-11.463.297-13.263-1.278-15.224-4.231-5.266-6.133 1.541-6.227 22.296-.044 9.519.377 14.355 1.549 17.793 1.465 4.299 1.729 4.56 2.968 2.928 1.3-1.714 1.361-1.71 1.391.089.018 1.035 1.014 3.471 2.215 5.414l2.183 3.532 1.236-2.914c.679-1.603 2.24-8.418 3.468-15.145 1.802-9.867 2.114-14.215 1.613-22.5-.342-5.648-1.135-12.058-1.762-14.245-.644-2.247-.962-7.9-.73-13 .372-8.216.815-9.875 4.939-18.524 2.491-5.225 7.923-15.125 12.07-22 19.261-31.931 22.231-42.582 18.403-66-3.396-20.778-9.051-35.027-24.404-61.5-10.076-17.373-12.195-19.619-15.152-16.057M721 152.5v83.532l27.75-.266 27.75-.266v-166l-27.75-.266-27.75-.266zm99.667-82.833c-.367.366-.667 13.363-.667 28.88v28.215l-18.721.173c-10.296.095-18.832.284-18.968.421-.191.191-.494 46.442-.343 52.394.025.955 4.516 1.25 19.032 1.25h19v54h55.061l-.062-25.75c-.034-14.162-.047-26.312-.03-27 .024-.955 4.514-1.25 19.031-1.25 10.45 0 19-.306 19-.681 0-.374-4.807-12.749-10.682-27.5L891.635 126h-8.567l-8.568.001.228-28.501.227-28.5h-26.811c-14.746 0-27.111.3-27.477.667m213.315 8.952a3345 3345 0 0 1-7.584 13.25c-47.377 81.824-63.668 109.791-64.363 110.491-.475.478-6.41-2.969-13.37-7.766l-12.515-8.625-28.055.265-28.056.266 11.678 9c6.422 4.95 20.818 16.088 31.991 24.75L944.021 236h23.966c23.762 0 23.979-.019 25.403-2.25.79-1.238 8.283-14.4 16.651-29.25 27.013-47.935 73.635-130.934 74.849-133.25l1.18-2.25h-46.605zM725 152.518v79.518l23.75-.268 23.75-.268.256-79.25.256-79.25H725zm312.232-71.268c-5.352 9.008-15.778 26.944-27.463 47.25-4.115 7.15-10.088 17.5-13.275 23-3.186 5.5-11.62 20.125-18.741 32.5s-13.467 23.043-14.101 23.706c-.889.931-4.348-.958-15.152-8.275l-14-9.48-21.336.274-21.336.275 26.794 20.75L945.416 232h44.394l2.481-4.25C998.268 217.513 1079 73.844 1079 73.444c0-.244-8.295-.444-18.433-.444h-18.433zM214 102v3h442v-6H214zm80 40.927c0 37.163-.307 35.336 5.75 34.245 2.045-.368 2.25-.964 2.25-6.552v-6.147l5.198-1.234c6.951-1.652 12.281-5.348 15.868-11.004 11.503-18.139 2.472-38.15-19.06-42.234-2.903-.55-6.343-1.001-7.642-1.001H294zm38 .752V178h8.122l-.489-6.514c-.562-7.51-1.129-7.557 9.103.747 6.992 5.674 7.411 5.862 12.429 5.57l5.194-.303-8.842-7.436-8.841-7.437 2.403-1.563c9.823-6.392 14.351-14.159 14.32-24.564-.043-14.592-9.962-24.321-26.874-26.357l-6.525-.785zm35.937-33.929c-.06.718-.029 64.417.033 67 .018.756 1.413 1.25 3.53 1.25h3.5v-69h-3.5c-1.925 0-3.528.338-3.563.75m9.063-.372c0 .275 3.368 14.589 7.484 31.811 4.116 17.221 7.725 32.323 8.019 33.561s1.162 2.25 1.929 2.25c.948 0 2.205-3.439 3.93-10.75C404.117 141.862 411 111.343 411 110.211c0-.705-1.389-1.211-3.326-1.211h-3.326l-4.884 20.5c-2.687 11.275-5.138 20.5-5.446 20.5-.309 0-2.576-9.113-5.039-20.25L384.5 109.5l-3.75-.31c-2.062-.171-3.75-.086-3.75.188m65.286 33.746.214 34.376 6.5-.076c16.536-.193 27.883-8.853 33.019-25.2 1.31-4.169 1.823-4.987 1.89-3.012.328 9.755 9.134 21.715 19.885 27.007 6.137 3.022 7.417 3.279 16.185 3.253 8.347-.025 10.228-.372 15.259-2.817 7.304-3.55 14.378-10.613 17.681-17.653 3.521-7.506 3.704-21.043.382-28.253-3.264-7.082-11.266-14.997-18.579-18.375-5.414-2.501-7.391-2.871-15.222-2.851-11.238.029-17.971 2.818-25.864 10.711-5.243 5.243-9.542 13.686-9.702 19.054-.036 1.216-.702-.15-1.479-3.037-4.416-16.399-16.122-26.099-32.649-27.056l-7.733-.448zm-23.176-31.728c-3.231 1.79-5.032 5.32-5.075 9.948-.027 2.985-.481 3.96-2.035 4.366-2.461.644-2.875 6.74-.519 7.644 1.235.474 1.525 4.269 1.75 22.857l.269 22.289h7l.269-22.75.269-22.75H430v46h7.081l-.291-31.583-.29-31.583-3.266-2.917c-2.541-2.27-4.205-2.909-7.5-2.882-2.329.02-5.309.632-6.624 1.361m30.735 25.445c-.085 11.912-.281 24.524-.435 28.026l-.28 6.368 4.027-.644c12.813-2.049 22.954-13.942 23.03-27.008.075-13.064-8.224-23.664-21.212-27.09L450 115.181zM302 137v21.038l2.75-.659c9.586-2.299 15.25-9.771 15.25-20.117 0-10.013-6.416-18.717-15.25-20.687l-2.75-.613zm121.204-19.43c-1.546 1.083-2.204 2.571-2.204 4.987 0 3.421.029 3.443 4.56 3.443h4.561l-.311-3.636c-.413-4.838-3.424-7.023-6.606-4.794m84.296.793c-14.242 6.674-20.906 23.155-15.04 37.194 1.9 4.55 8.07 11.081 13.456 14.248 4.061 2.387 5.611 2.695 13.584 2.695 8.099 0 9.534-.296 14.333-2.954 8.857-4.906 14.013-12.753 14.915-22.7 1.071-11.816-4.637-21.898-15.616-27.581-8.191-4.24-17.789-4.578-25.632-.902M340 136.875c0 22.192-.231 21.502 6.298 18.774 7.181-3.001 12.491-12.732 11.397-20.887-1.087-8.104-7.662-16.005-14.449-17.363L340 116.75zM214 186v3h442v-6H214zm89.859 10.25c-.078 2.887-.076 6.488.003 8 .112 2.133-.305 2.75-1.859 2.75-1.102 0-1.997.563-1.989 1.25.031 2.91 1.317 5.75 2.603 5.75 1.137 0 1.383 4.084 1.383 23v23h19v-8h-12v-37h7c3.85 0 7-.17 7-.378s-.681-2.008-1.513-4c-1.479-3.539-1.64-3.622-7-3.622H311v-9h12v-7h-19zm38.558-4.333c-.23.229-.417 15.866-.417 34.75V261h20v-7h-11.972l-.264-31.154-.264-31.155-3.333-.095c-1.834-.053-3.521.092-3.75.321m114.035-.035c-.249.248-.452 15.901-.452 34.785V261h20v-7h-12l-.058-27.25c-.031-14.988-.37-29.011-.752-31.163-.606-3.408-1.056-3.928-3.491-4.035-1.537-.067-2.999.081-3.247.33m23.682-.093c-.816.272-1.134 10.032-1.134 34.794V261h20v-7h-11.972l-.264-31.25-.264-31.25-2.616-.045c-1.439-.024-3.127.126-3.75.334M259 226.357V261h3.833c22.043 0 37.227-15.56 35.956-36.845-1.067-17.85-13.868-30.664-31.866-31.898l-7.923-.543zm113.388-33.377c-3.747 1.514-6.388 5.919-6.388 10.655 0 3.698-.305 4.365-2 4.365-1.667 0-2 .667-2 4s.333 4 2 4c1.941 0 2 .667 2 22.5V261h6.962l.269-22.75c.248-20.953.407-22.74 2.019-22.625.962.069 2.875.181 4.25.25l2.5.125v45.121l3.75-.311 3.75-.31.31-21.5c.171-11.825.009-25.757-.359-30.959-.634-8.969-.839-9.629-3.96-12.75-2.622-2.622-4.074-3.278-7.141-3.228-2.117.035-4.8.448-5.962.917m35.064.097c-.24.389 2.931 14.818 7.046 32.065a35679 35679 0 0 1 8.011 33.608c.291 1.238 1.159 2.25 1.928 2.25.954 0 2.093-3.103 3.579-9.75 1.2-5.363 3.443-15.15 4.986-21.75 8.183-35.006 8.311-35.686 6.872-36.62-.756-.49-2.274-.776-3.374-.636-1.729.221-2.7 3.037-7.16 20.756-2.837 11.275-5.239 20.725-5.337 21s-2.308-8.95-4.911-20.5l-4.735-21-3.234-.065c-1.778-.036-3.43.253-3.671.642M443 226.5V261h3.437c4.338 0 4.138 1.992 3.785-37.75l-.277-31.25H443zm65.388-33.52c-3.747 1.514-6.388 5.919-6.388 10.655 0 3.698-.305 4.365-2 4.365-1.667 0-2 .667-2 4s.333 4 2 4c1.941 0 2 .667 2 22.5V261h6.962l.269-22.723.269-22.723 2.25.112c6.924.344 6.25-2.117 6.25 22.834V261h8.176l-.338-30.25c-.309-27.685-.5-30.518-2.253-33.415-2.962-4.895-9.339-6.722-15.197-4.355M266 226.218v28.005l3.703-.695c5.259-.987 10.66-3.958 14.898-8.195 15.155-15.156 6.999-41.394-14.351-46.17l-4.25-.95zm108.58-25.306c-1.023 1.13-1.597 3.071-1.405 4.75.294 2.563.737 2.868 4.575 3.145l4.25.308v-3.858c0-6.046-3.844-8.297-7.42-4.345m136.635-.662c-.566.688-1.184 2.825-1.372 4.75l-.343 3.5h4.5c3.939 0 4.541-.288 4.827-2.308.695-4.902-4.882-9.256-7.612-5.942M65.697 217.242c-2.531 8.975-4.699 19.772-4.67 23.258.013 1.65 1.555 6.15 3.426 10l3.401 7 .073-8c.072-7.841 1.755-17.887 4.048-24.154 1.017-2.781.818-3.818-1.68-8.759l-2.834-5.604zM581 240.5V259h5.5c4.833 0 5.5-.242 5.5-2 0-1.619-.667-2-3.5-2H585v-16.5c0-15.833-.081-16.5-2-16.5-1.928 0-2 .667-2 18.5m-44.325-16.25c-3.102 2.27-2.692 6.72 1.439 15.641C543.552 251.634 543.148 255 536.3 255c-2.7 0-3.3.387-3.3 2.13 0 1.947.405 2.084 4.711 1.599 9.029-1.018 10.35-6.218 4.789-18.865-1.925-4.379-3.5-9.064-3.5-10.412 0-2.058.482-2.452 3-2.452 2.333 0 3-.444 3-2 0-1.597-.667-2-3.309-2-1.82 0-4.077.563-5.016 1.25M555 241c0 17.333.074 18 2 18 1.556 0 2-.667 2-3 0-3.7.592-3.695 4.962.041 1.926 1.646 4.588 2.941 6 2.918 2.43-.039 2.358-.204-1.71-3.884l-4.248-3.843 3.868-3.869c4.962-4.962 6.17-10.572 3.464-16.096-2.139-4.368-8.258-8.226-13.086-8.251L555 223zm4-3.969c0 11.773.377 12.494 4.883 9.338 3.093-2.166 5.237-7.518 4.496-11.224-.61-3.049-4.501-7.367-7.629-8.467-1.598-.562-1.75.339-1.75 10.353M53.665 248.104c-.356 2.968-.653 8.321-.66 11.896-.007 4.124-1.472 12.532-4.005 23-4.938 20.401-4.99 22.18-.775 26.327l3.225 3.173.695-5c.615-4.428 4.647-20.782 4.808-19.5.034.275.488 4.203 1.008 8.73C58.98 305.583 60.24 309 62.49 309c2.977 0 3.162-10.339.499-27.837-.801-5.258-.816-8.745-.053-12.3 1.646-7.675 1.317-13.936-.925-17.613-1.09-1.787-2.663-3.25-3.496-3.25S57 247.636 57 247.191s-.605-1.635-1.343-2.646c-1.203-1.644-1.412-1.27-1.992 3.559m49.259 5.146c-.042 1.238-.009 5.37.073 9.183.129 6.003-.049 6.769-1.324 5.711-.81-.673-1.473-2.79-1.473-4.706 0-3.367-2.423-8.438-4.032-8.438-.432 0-1.619.61-2.638 1.355-1.656 1.21-1.74 1.925-.787 6.744.679 3.435.723 6.029.122 7.154-.52.97-.86 4.798-.756 8.506.105 3.707-.143 9.668-.55 13.245-.575 5.062-.369 7.429.929 10.673 1.539 3.848 4.048 6.12 5.335 4.833 1.095-1.094 3.108-20.155 2.553-24.168-.317-2.287-.221-5.662.212-7.5l.787-3.342.694 3c.382 1.65.758 6.15.837 10 .182 8.975 1.435 14.285 3.968 16.819 1.734 1.733 2.248 1.825 3.662.651 1.344-1.115 1.513-2.382.923-6.918-.398-3.053-.675-11.848-.617-19.544.112-14.971-.795-20.461-3.895-23.561-2.565-2.565-3.93-2.462-4.023.303m444.743 2.417c-1.327 1.327-.625 3.333 1.166 3.333 2.36 0 3.165-.841 2.491-2.598-.565-1.473-2.525-1.867-3.657-.735m27.034-.035c-1.521 1.521-.583 3.368 1.711 3.368 1.727 0 2.338-.496 2.155-1.75-.267-1.828-2.656-2.828-3.866-1.618"/></svg>